<mxfile host="app.diagrams.net" modified="2021-01-07T09:32:58.938Z" agent="5.0 (Windows NT 10.0; Win64; x64) AppleWebKit/537.36 (KHTML, like Gecko) Chrome/87.0.4280.88 Safari/537.36" etag="PnHanzAyspAZoQNrDIbB" version="14.1.8" type="github" pages="9">
  <diagram id="C5RBs43oDa-KdzZeNtuy" name="查询广告计划">
    <mxGraphModel dx="1422" dy="762" grid="1" gridSize="10" guides="1" tooltips="1" connect="1" arrows="1" fold="1" page="1" pageScale="1" pageWidth="827" pageHeight="1169" math="0" shadow="0">
      <root>
        <mxCell id="WIyWlLk6GJQsqaUBKTNV-0" />
        <mxCell id="WIyWlLk6GJQsqaUBKTNV-1" parent="WIyWlLk6GJQsqaUBKTNV-0" />
        <mxCell id="rZf088ChFKQM_hlV9bjL-0" value="查询广告计划" style="swimlane;html=1;childLayout=stackLayout;resizeParent=1;resizeParentMax=0;startSize=20;" parent="WIyWlLk6GJQsqaUBKTNV-1" vertex="1">
          <mxGeometry x="130" y="470" width="490" height="420" as="geometry" />
        </mxCell>
        <mxCell id="rZf088ChFKQM_hlV9bjL-1" value="商户/运营人员" style="swimlane;html=1;startSize=20;" parent="rZf088ChFKQM_hlV9bjL-0" vertex="1">
          <mxGeometry y="20" width="160" height="400" as="geometry" />
        </mxCell>
        <mxCell id="rZf088ChFKQM_hlV9bjL-7" value="查询广告计划" style="rounded=1;whiteSpace=wrap;html=1;" parent="rZf088ChFKQM_hlV9bjL-1" vertex="1">
          <mxGeometry x="20" y="130" width="120" height="60" as="geometry" />
        </mxCell>
        <mxCell id="Sfru7Amvm2wmb_X456PF-10" value="结束" style="rounded=1;whiteSpace=wrap;html=1;" parent="rZf088ChFKQM_hlV9bjL-1" vertex="1">
          <mxGeometry x="20" y="230" width="120" height="60" as="geometry" />
        </mxCell>
        <mxCell id="rZf088ChFKQM_hlV9bjL-2" value="广告计划模块" style="swimlane;html=1;startSize=20;" parent="rZf088ChFKQM_hlV9bjL-0" vertex="1">
          <mxGeometry x="160" y="20" width="140" height="400" as="geometry" />
        </mxCell>
        <mxCell id="rZf088ChFKQM_hlV9bjL-8" value="查询广告计划表" style="rounded=0;whiteSpace=wrap;html=1;" parent="rZf088ChFKQM_hlV9bjL-2" vertex="1">
          <mxGeometry x="10" y="130" width="120" height="60" as="geometry" />
        </mxCell>
        <mxCell id="Sfru7Amvm2wmb_X456PF-9" value="数据组装" style="rounded=0;whiteSpace=wrap;html=1;" parent="rZf088ChFKQM_hlV9bjL-2" vertex="1">
          <mxGeometry x="10" y="230" width="120" height="60" as="geometry" />
        </mxCell>
        <mxCell id="rZf088ChFKQM_hlV9bjL-9" style="edgeStyle=orthogonalEdgeStyle;rounded=0;orthogonalLoop=1;jettySize=auto;html=1;exitX=1;exitY=0.5;exitDx=0;exitDy=0;entryX=0;entryY=0.5;entryDx=0;entryDy=0;" parent="rZf088ChFKQM_hlV9bjL-0" source="rZf088ChFKQM_hlV9bjL-7" target="rZf088ChFKQM_hlV9bjL-8" edge="1">
          <mxGeometry relative="1" as="geometry" />
        </mxCell>
        <mxCell id="Sfru7Amvm2wmb_X456PF-1" value="" style="edgeStyle=orthogonalEdgeStyle;rounded=0;orthogonalLoop=1;jettySize=auto;html=1;" parent="rZf088ChFKQM_hlV9bjL-0" source="rZf088ChFKQM_hlV9bjL-8" target="Sfru7Amvm2wmb_X456PF-0" edge="1">
          <mxGeometry relative="1" as="geometry" />
        </mxCell>
        <mxCell id="rZf088ChFKQM_hlV9bjL-3" value="广告离线数据统计模块（大数据）" style="swimlane;html=1;startSize=20;" parent="rZf088ChFKQM_hlV9bjL-0" vertex="1">
          <mxGeometry x="300" y="20" width="190" height="400" as="geometry" />
        </mxCell>
        <mxCell id="Sfru7Amvm2wmb_X456PF-0" value="查询广告效果统计表" style="whiteSpace=wrap;html=1;rounded=0;" parent="rZf088ChFKQM_hlV9bjL-3" vertex="1">
          <mxGeometry x="30" y="130" width="120" height="60" as="geometry" />
        </mxCell>
        <mxCell id="Sfru7Amvm2wmb_X456PF-6" style="edgeStyle=orthogonalEdgeStyle;rounded=0;orthogonalLoop=1;jettySize=auto;html=1;exitX=0.5;exitY=1;exitDx=0;exitDy=0;entryX=0.5;entryY=0;entryDx=0;entryDy=0;" parent="rZf088ChFKQM_hlV9bjL-3" source="Sfru7Amvm2wmb_X456PF-5" target="Sfru7Amvm2wmb_X456PF-0" edge="1">
          <mxGeometry relative="1" as="geometry" />
        </mxCell>
        <mxCell id="Sfru7Amvm2wmb_X456PF-5" value="大数据T+1&lt;br&gt;离线统计写入" style="rounded=1;whiteSpace=wrap;html=1;" parent="rZf088ChFKQM_hlV9bjL-3" vertex="1">
          <mxGeometry x="50" y="50" width="80" height="35" as="geometry" />
        </mxCell>
        <mxCell id="Sfru7Amvm2wmb_X456PF-8" style="edgeStyle=orthogonalEdgeStyle;rounded=0;orthogonalLoop=1;jettySize=auto;html=1;entryX=1;entryY=0.5;entryDx=0;entryDy=0;exitX=0.5;exitY=1;exitDx=0;exitDy=0;" parent="rZf088ChFKQM_hlV9bjL-0" source="Sfru7Amvm2wmb_X456PF-0" target="Sfru7Amvm2wmb_X456PF-9" edge="1">
          <mxGeometry relative="1" as="geometry">
            <mxPoint x="390" y="270" as="targetPoint" />
          </mxGeometry>
        </mxCell>
        <mxCell id="Sfru7Amvm2wmb_X456PF-11" style="edgeStyle=orthogonalEdgeStyle;rounded=0;orthogonalLoop=1;jettySize=auto;html=1;exitX=0;exitY=0.5;exitDx=0;exitDy=0;entryX=1;entryY=0.5;entryDx=0;entryDy=0;" parent="rZf088ChFKQM_hlV9bjL-0" source="Sfru7Amvm2wmb_X456PF-9" target="Sfru7Amvm2wmb_X456PF-10" edge="1">
          <mxGeometry relative="1" as="geometry" />
        </mxCell>
        <mxCell id="Sfru7Amvm2wmb_X456PF-2" value="&lt;span&gt;广告效果统计信息包括点击量、点击单价、点击率、&lt;br&gt;转化量、转化金额、转化成本、转化率&lt;/span&gt;" style="text;whiteSpace=wrap;html=1;" parent="WIyWlLk6GJQsqaUBKTNV-1" vertex="1">
          <mxGeometry x="330" y="400" width="290" height="30" as="geometry" />
        </mxCell>
      </root>
    </mxGraphModel>
  </diagram>
  <diagram id="QKHpSr1992hRo_cPwNEw" name="保存广告计划">
    <mxGraphModel dx="1422" dy="762" grid="1" gridSize="10" guides="1" tooltips="1" connect="1" arrows="1" fold="1" page="1" pageScale="1" pageWidth="827" pageHeight="1169" math="0" shadow="0">
      <root>
        <mxCell id="luAYzCI24lX8ZK7VboMd-0" />
        <mxCell id="luAYzCI24lX8ZK7VboMd-1" parent="luAYzCI24lX8ZK7VboMd-0" />
        <mxCell id="crOuEHGGHmYZBBnBzpBd-0" value="保存广告计划" style="swimlane;html=1;childLayout=stackLayout;resizeParent=1;resizeParentMax=0;startSize=20;" parent="luAYzCI24lX8ZK7VboMd-1" vertex="1">
          <mxGeometry x="130" y="470" width="1310" height="990" as="geometry" />
        </mxCell>
        <mxCell id="crOuEHGGHmYZBBnBzpBd-1" value="商户" style="swimlane;html=1;startSize=20;" parent="crOuEHGGHmYZBBnBzpBd-0" vertex="1">
          <mxGeometry y="20" width="160" height="970" as="geometry" />
        </mxCell>
        <mxCell id="crOuEHGGHmYZBBnBzpBd-2" value="保存广告计划" style="rounded=1;whiteSpace=wrap;html=1;" parent="crOuEHGGHmYZBBnBzpBd-1" vertex="1">
          <mxGeometry x="20" y="35" width="120" height="60" as="geometry" />
        </mxCell>
        <mxCell id="KcSxCt_xP_yrwuMPab6c-66" value="结束" style="rounded=1;whiteSpace=wrap;html=1;" parent="crOuEHGGHmYZBBnBzpBd-1" vertex="1">
          <mxGeometry x="20" y="890" width="120" height="60" as="geometry" />
        </mxCell>
        <mxCell id="crOuEHGGHmYZBBnBzpBd-7" style="edgeStyle=orthogonalEdgeStyle;rounded=0;orthogonalLoop=1;jettySize=auto;html=1;exitX=1;exitY=0.5;exitDx=0;exitDy=0;entryX=0;entryY=0.5;entryDx=0;entryDy=0;" parent="crOuEHGGHmYZBBnBzpBd-0" source="crOuEHGGHmYZBBnBzpBd-2" target="crOuEHGGHmYZBBnBzpBd-5" edge="1">
          <mxGeometry relative="1" as="geometry">
            <mxPoint x="200" y="85" as="sourcePoint" />
          </mxGeometry>
        </mxCell>
        <mxCell id="crOuEHGGHmYZBBnBzpBd-4" value="广告计划模块" style="swimlane;html=1;startSize=20;" parent="crOuEHGGHmYZBBnBzpBd-0" vertex="1">
          <mxGeometry x="160" y="20" width="580" height="970" as="geometry" />
        </mxCell>
        <mxCell id="crOuEHGGHmYZBBnBzpBd-5" value="校验入参合法性&lt;br&gt;（起止时间、标签）" style="rounded=0;whiteSpace=wrap;html=1;" parent="crOuEHGGHmYZBBnBzpBd-4" vertex="1">
          <mxGeometry x="70" y="35" width="120" height="60" as="geometry" />
        </mxCell>
        <mxCell id="KcSxCt_xP_yrwuMPab6c-1" value="校验内容/商品在有效期内是否被重复投放" style="rounded=0;whiteSpace=wrap;html=1;" parent="crOuEHGGHmYZBBnBzpBd-4" vertex="1">
          <mxGeometry x="70" y="130" width="120" height="60" as="geometry" />
        </mxCell>
        <mxCell id="KcSxCt_xP_yrwuMPab6c-3" value="是否内容" style="rhombus;whiteSpace=wrap;html=1;" parent="crOuEHGGHmYZBBnBzpBd-4" vertex="1">
          <mxGeometry x="85" y="220" width="90" height="60" as="geometry" />
        </mxCell>
        <mxCell id="KcSxCt_xP_yrwuMPab6c-2" style="edgeStyle=orthogonalEdgeStyle;rounded=0;orthogonalLoop=1;jettySize=auto;html=1;entryX=0.5;entryY=0;entryDx=0;entryDy=0;" parent="crOuEHGGHmYZBBnBzpBd-4" source="KcSxCt_xP_yrwuMPab6c-1" target="KcSxCt_xP_yrwuMPab6c-3" edge="1">
          <mxGeometry relative="1" as="geometry">
            <mxPoint x="130" y="220" as="targetPoint" />
          </mxGeometry>
        </mxCell>
        <mxCell id="KcSxCt_xP_yrwuMPab6c-6" value="查询内容及关联商品信息" style="rounded=0;whiteSpace=wrap;html=1;" parent="crOuEHGGHmYZBBnBzpBd-4" vertex="1">
          <mxGeometry x="70" y="320" width="120" height="60" as="geometry" />
        </mxCell>
        <mxCell id="KcSxCt_xP_yrwuMPab6c-5" value="Y" style="edgeStyle=orthogonalEdgeStyle;rounded=0;orthogonalLoop=1;jettySize=auto;html=1;exitX=0.5;exitY=1;exitDx=0;exitDy=0;entryX=0.5;entryY=0;entryDx=0;entryDy=0;" parent="crOuEHGGHmYZBBnBzpBd-4" source="KcSxCt_xP_yrwuMPab6c-3" target="KcSxCt_xP_yrwuMPab6c-6" edge="1">
          <mxGeometry relative="1" as="geometry">
            <mxPoint x="130" y="300" as="targetPoint" />
            <Array as="points">
              <mxPoint x="130" y="310" />
            </Array>
          </mxGeometry>
        </mxCell>
        <mxCell id="KcSxCt_xP_yrwuMPab6c-15" value="拦截已下架&lt;br&gt;或关联商品全部下架" style="rounded=0;whiteSpace=wrap;html=1;" parent="crOuEHGGHmYZBBnBzpBd-4" vertex="1">
          <mxGeometry x="70" y="410" width="120" height="60" as="geometry" />
        </mxCell>
        <mxCell id="KcSxCt_xP_yrwuMPab6c-11" style="edgeStyle=orthogonalEdgeStyle;rounded=0;orthogonalLoop=1;jettySize=auto;html=1;exitX=0.5;exitY=1;exitDx=0;exitDy=0;" parent="crOuEHGGHmYZBBnBzpBd-4" source="KcSxCt_xP_yrwuMPab6c-6" target="KcSxCt_xP_yrwuMPab6c-15" edge="1">
          <mxGeometry relative="1" as="geometry">
            <mxPoint x="130" y="410" as="targetPoint" />
          </mxGeometry>
        </mxCell>
        <mxCell id="KcSxCt_xP_yrwuMPab6c-22" value="是否广告" style="rhombus;whiteSpace=wrap;html=1;" parent="crOuEHGGHmYZBBnBzpBd-4" vertex="1">
          <mxGeometry x="240" y="220" width="80" height="60" as="geometry" />
        </mxCell>
        <mxCell id="KcSxCt_xP_yrwuMPab6c-21" value="N" style="edgeStyle=orthogonalEdgeStyle;rounded=0;orthogonalLoop=1;jettySize=auto;html=1;exitX=1;exitY=0.5;exitDx=0;exitDy=0;" parent="crOuEHGGHmYZBBnBzpBd-4" source="KcSxCt_xP_yrwuMPab6c-3" target="KcSxCt_xP_yrwuMPab6c-22" edge="1">
          <mxGeometry relative="1" as="geometry">
            <mxPoint x="240" y="250" as="targetPoint" />
          </mxGeometry>
        </mxCell>
        <mxCell id="KcSxCt_xP_yrwuMPab6c-55" style="edgeStyle=orthogonalEdgeStyle;rounded=0;orthogonalLoop=1;jettySize=auto;html=1;exitX=0.5;exitY=1;exitDx=0;exitDy=0;entryX=0.5;entryY=0;entryDx=0;entryDy=0;" parent="crOuEHGGHmYZBBnBzpBd-4" source="KcSxCt_xP_yrwuMPab6c-25" edge="1">
          <mxGeometry relative="1" as="geometry">
            <mxPoint x="130" y="690" as="targetPoint" />
          </mxGeometry>
        </mxCell>
        <mxCell id="KcSxCt_xP_yrwuMPab6c-25" value="写入广告" style="rounded=0;whiteSpace=wrap;html=1;" parent="crOuEHGGHmYZBBnBzpBd-4" vertex="1">
          <mxGeometry x="220" y="410" width="120" height="60" as="geometry" />
        </mxCell>
        <mxCell id="KcSxCt_xP_yrwuMPab6c-23" value="Y" style="edgeStyle=orthogonalEdgeStyle;rounded=0;orthogonalLoop=1;jettySize=auto;html=1;exitX=0.5;exitY=1;exitDx=0;exitDy=0;entryX=0.5;entryY=0;entryDx=0;entryDy=0;" parent="crOuEHGGHmYZBBnBzpBd-4" source="KcSxCt_xP_yrwuMPab6c-22" target="KcSxCt_xP_yrwuMPab6c-25" edge="1">
          <mxGeometry relative="1" as="geometry">
            <mxPoint x="280" y="400" as="targetPoint" />
          </mxGeometry>
        </mxCell>
        <mxCell id="KcSxCt_xP_yrwuMPab6c-31" value="是否商品" style="rhombus;whiteSpace=wrap;html=1;" parent="crOuEHGGHmYZBBnBzpBd-4" vertex="1">
          <mxGeometry x="390" y="220" width="80" height="60" as="geometry" />
        </mxCell>
        <mxCell id="KcSxCt_xP_yrwuMPab6c-30" value="N" style="edgeStyle=orthogonalEdgeStyle;rounded=0;orthogonalLoop=1;jettySize=auto;html=1;" parent="crOuEHGGHmYZBBnBzpBd-4" source="KcSxCt_xP_yrwuMPab6c-22" target="KcSxCt_xP_yrwuMPab6c-31" edge="1">
          <mxGeometry relative="1" as="geometry">
            <mxPoint x="390" y="250" as="targetPoint" />
          </mxGeometry>
        </mxCell>
        <mxCell id="KcSxCt_xP_yrwuMPab6c-52" style="edgeStyle=orthogonalEdgeStyle;rounded=0;orthogonalLoop=1;jettySize=auto;html=1;exitX=0.5;exitY=1;exitDx=0;exitDy=0;entryX=0.5;entryY=0;entryDx=0;entryDy=0;" parent="crOuEHGGHmYZBBnBzpBd-4" source="KcSxCt_xP_yrwuMPab6c-33" target="KcSxCt_xP_yrwuMPab6c-51" edge="1">
          <mxGeometry relative="1" as="geometry" />
        </mxCell>
        <mxCell id="KcSxCt_xP_yrwuMPab6c-33" value="查询商品信息" style="rounded=0;whiteSpace=wrap;html=1;" parent="crOuEHGGHmYZBBnBzpBd-4" vertex="1">
          <mxGeometry x="370" y="490" width="120" height="60" as="geometry" />
        </mxCell>
        <mxCell id="KcSxCt_xP_yrwuMPab6c-51" value="拦截已下架或无效商品" style="rounded=0;whiteSpace=wrap;html=1;" parent="crOuEHGGHmYZBBnBzpBd-4" vertex="1">
          <mxGeometry x="370" y="590" width="120" height="60" as="geometry" />
        </mxCell>
        <mxCell id="KcSxCt_xP_yrwuMPab6c-53" style="edgeStyle=orthogonalEdgeStyle;rounded=0;orthogonalLoop=1;jettySize=auto;html=1;exitX=0.5;exitY=1;exitDx=0;exitDy=0;entryX=0.5;entryY=0;entryDx=0;entryDy=0;" parent="crOuEHGGHmYZBBnBzpBd-4" source="KcSxCt_xP_yrwuMPab6c-15" target="KcSxCt_xP_yrwuMPab6c-63" edge="1">
          <mxGeometry relative="1" as="geometry">
            <mxPoint x="130" y="690" as="targetPoint" />
          </mxGeometry>
        </mxCell>
        <mxCell id="KcSxCt_xP_yrwuMPab6c-63" value="保存投放计划" style="rounded=0;whiteSpace=wrap;html=1;" parent="crOuEHGGHmYZBBnBzpBd-4" vertex="1">
          <mxGeometry x="70" y="890" width="120" height="60" as="geometry" />
        </mxCell>
        <mxCell id="KcSxCt_xP_yrwuMPab6c-56" style="edgeStyle=orthogonalEdgeStyle;rounded=0;orthogonalLoop=1;jettySize=auto;html=1;exitX=0.5;exitY=1;exitDx=0;exitDy=0;entryX=0.5;entryY=0;entryDx=0;entryDy=0;" parent="crOuEHGGHmYZBBnBzpBd-4" source="KcSxCt_xP_yrwuMPab6c-51" edge="1" target="KcSxCt_xP_yrwuMPab6c-63">
          <mxGeometry relative="1" as="geometry">
            <mxPoint x="140" y="710" as="targetPoint" />
          </mxGeometry>
        </mxCell>
        <mxCell id="KcSxCt_xP_yrwuMPab6c-7" style="edgeStyle=orthogonalEdgeStyle;rounded=0;orthogonalLoop=1;jettySize=auto;html=1;" parent="crOuEHGGHmYZBBnBzpBd-0" source="KcSxCt_xP_yrwuMPab6c-6" target="KcSxCt_xP_yrwuMPab6c-10" edge="1">
          <mxGeometry relative="1" as="geometry">
            <mxPoint x="440" y="370" as="targetPoint" />
          </mxGeometry>
        </mxCell>
        <mxCell id="crOuEHGGHmYZBBnBzpBd-9" value="内容模块" style="swimlane;html=1;startSize=20;" parent="crOuEHGGHmYZBBnBzpBd-0" vertex="1">
          <mxGeometry x="740" y="20" width="190" height="970" as="geometry" />
        </mxCell>
        <mxCell id="KcSxCt_xP_yrwuMPab6c-10" value="查询内容信息" style="rounded=0;whiteSpace=wrap;html=1;" parent="crOuEHGGHmYZBBnBzpBd-9" vertex="1">
          <mxGeometry x="35" y="320" width="120" height="60" as="geometry" />
        </mxCell>
        <mxCell id="KcSxCt_xP_yrwuMPab6c-24" value="广告模块" style="swimlane;html=1;startSize=20;" parent="crOuEHGGHmYZBBnBzpBd-0" vertex="1">
          <mxGeometry x="930" y="20" width="190" height="970" as="geometry" />
        </mxCell>
        <mxCell id="KcSxCt_xP_yrwuMPab6c-27" value="新增广告" style="rounded=0;whiteSpace=wrap;html=1;" parent="KcSxCt_xP_yrwuMPab6c-24" vertex="1">
          <mxGeometry x="50" y="410" width="120" height="60" as="geometry" />
        </mxCell>
        <mxCell id="KcSxCt_xP_yrwuMPab6c-28" value="商品模块" style="swimlane;html=1;startSize=20;" parent="crOuEHGGHmYZBBnBzpBd-0" vertex="1">
          <mxGeometry x="1120" y="20" width="190" height="970" as="geometry" />
        </mxCell>
        <mxCell id="KcSxCt_xP_yrwuMPab6c-29" value="查询商品信息" style="rounded=0;whiteSpace=wrap;html=1;" parent="KcSxCt_xP_yrwuMPab6c-28" vertex="1">
          <mxGeometry x="35" y="490" width="120" height="60" as="geometry" />
        </mxCell>
        <mxCell id="KcSxCt_xP_yrwuMPab6c-26" style="edgeStyle=orthogonalEdgeStyle;rounded=0;orthogonalLoop=1;jettySize=auto;html=1;exitX=1;exitY=0.5;exitDx=0;exitDy=0;entryX=0;entryY=0.5;entryDx=0;entryDy=0;" parent="crOuEHGGHmYZBBnBzpBd-0" source="KcSxCt_xP_yrwuMPab6c-25" target="KcSxCt_xP_yrwuMPab6c-27" edge="1">
          <mxGeometry relative="1" as="geometry">
            <mxPoint x="800" y="460" as="targetPoint" />
          </mxGeometry>
        </mxCell>
        <mxCell id="KcSxCt_xP_yrwuMPab6c-34" style="edgeStyle=orthogonalEdgeStyle;rounded=0;orthogonalLoop=1;jettySize=auto;html=1;exitX=1;exitY=0.5;exitDx=0;exitDy=0;entryX=0;entryY=0.5;entryDx=0;entryDy=0;" parent="crOuEHGGHmYZBBnBzpBd-0" source="KcSxCt_xP_yrwuMPab6c-33" target="KcSxCt_xP_yrwuMPab6c-29" edge="1">
          <mxGeometry relative="1" as="geometry" />
        </mxCell>
        <mxCell id="KcSxCt_xP_yrwuMPab6c-65" value="" style="edgeStyle=orthogonalEdgeStyle;rounded=0;orthogonalLoop=1;jettySize=auto;html=1;" parent="crOuEHGGHmYZBBnBzpBd-0" source="KcSxCt_xP_yrwuMPab6c-63" target="KcSxCt_xP_yrwuMPab6c-66" edge="1">
          <mxGeometry relative="1" as="geometry">
            <mxPoint x="150" y="940" as="targetPoint" />
          </mxGeometry>
        </mxCell>
        <mxCell id="KcSxCt_xP_yrwuMPab6c-0" style="edgeStyle=orthogonalEdgeStyle;rounded=0;orthogonalLoop=1;jettySize=auto;html=1;" parent="luAYzCI24lX8ZK7VboMd-1" source="crOuEHGGHmYZBBnBzpBd-5" edge="1">
          <mxGeometry relative="1" as="geometry">
            <mxPoint x="420" y="620" as="targetPoint" />
          </mxGeometry>
        </mxCell>
        <mxCell id="KcSxCt_xP_yrwuMPab6c-32" value="Y" style="edgeStyle=orthogonalEdgeStyle;rounded=0;orthogonalLoop=1;jettySize=auto;html=1;exitX=0.5;exitY=1;exitDx=0;exitDy=0;" parent="luAYzCI24lX8ZK7VboMd-1" source="KcSxCt_xP_yrwuMPab6c-31" edge="1">
          <mxGeometry relative="1" as="geometry">
            <mxPoint x="720" y="980" as="targetPoint" />
          </mxGeometry>
        </mxCell>
      </root>
    </mxGraphModel>
  </diagram>
  <diagram id="yDp60B6G8YBt0L0aolmY" name="广告计划审核">
    <mxGraphModel dx="1422" dy="762" grid="1" gridSize="10" guides="1" tooltips="1" connect="1" arrows="1" fold="1" page="1" pageScale="1" pageWidth="827" pageHeight="1169" math="0" shadow="0">
      <root>
        <mxCell id="90bquAA0Ym70A24eKpCr-0" />
        <mxCell id="90bquAA0Ym70A24eKpCr-1" parent="90bquAA0Ym70A24eKpCr-0" />
        <mxCell id="HEPH94IzApa0JQV97Q4R-0" value="广告计划审核" style="swimlane;html=1;childLayout=stackLayout;resizeParent=1;resizeParentMax=0;startSize=20;" parent="90bquAA0Ym70A24eKpCr-1" vertex="1">
          <mxGeometry x="130" y="470" width="1120" height="2510" as="geometry" />
        </mxCell>
        <mxCell id="HEPH94IzApa0JQV97Q4R-1" value="商户" style="swimlane;html=1;startSize=20;" parent="HEPH94IzApa0JQV97Q4R-0" vertex="1">
          <mxGeometry y="20" width="160" height="2490" as="geometry" />
        </mxCell>
        <mxCell id="HEPH94IzApa0JQV97Q4R-2" value="广告计划提交审核" style="rounded=1;whiteSpace=wrap;html=1;" parent="HEPH94IzApa0JQV97Q4R-1" vertex="1">
          <mxGeometry x="20" y="35" width="120" height="60" as="geometry" />
        </mxCell>
        <mxCell id="XHSK-ZXNEdqsNm36R-xS-62" value="提交审核结束" style="rounded=1;whiteSpace=wrap;html=1;" parent="HEPH94IzApa0JQV97Q4R-1" vertex="1">
          <mxGeometry x="20" y="1090" width="120" height="60" as="geometry" />
        </mxCell>
        <mxCell id="XHSK-ZXNEdqsNm36R-xS-112" value="审核成功" style="rounded=1;whiteSpace=wrap;html=1;" parent="HEPH94IzApa0JQV97Q4R-1" vertex="1">
          <mxGeometry x="20" y="1590" width="120" height="60" as="geometry" />
        </mxCell>
        <mxCell id="XHSK-ZXNEdqsNm36R-xS-225" value="审核失败" style="rounded=1;whiteSpace=wrap;html=1;" parent="HEPH94IzApa0JQV97Q4R-1" vertex="1">
          <mxGeometry x="20" y="2280" width="120" height="60" as="geometry" />
        </mxCell>
        <mxCell id="HEPH94IzApa0JQV97Q4R-4" style="edgeStyle=orthogonalEdgeStyle;rounded=0;orthogonalLoop=1;jettySize=auto;html=1;exitX=1;exitY=0.5;exitDx=0;exitDy=0;entryX=0;entryY=0.5;entryDx=0;entryDy=0;" parent="HEPH94IzApa0JQV97Q4R-0" source="HEPH94IzApa0JQV97Q4R-2" target="HEPH94IzApa0JQV97Q4R-6" edge="1">
          <mxGeometry relative="1" as="geometry">
            <mxPoint x="200" y="85" as="sourcePoint" />
          </mxGeometry>
        </mxCell>
        <mxCell id="HEPH94IzApa0JQV97Q4R-5" value="广告计划模块" style="swimlane;html=1;startSize=20;" parent="HEPH94IzApa0JQV97Q4R-0" vertex="1">
          <mxGeometry x="160" y="20" width="580" height="2490" as="geometry" />
        </mxCell>
        <mxCell id="HEPH94IzApa0JQV97Q4R-6" value="查询广告计划详情" style="rounded=0;whiteSpace=wrap;html=1;" parent="HEPH94IzApa0JQV97Q4R-5" vertex="1">
          <mxGeometry x="70" y="35" width="120" height="60" as="geometry" />
        </mxCell>
        <mxCell id="HEPH94IzApa0JQV97Q4R-42" style="edgeStyle=orthogonalEdgeStyle;rounded=0;orthogonalLoop=1;jettySize=auto;html=1;" parent="HEPH94IzApa0JQV97Q4R-5" source="HEPH94IzApa0JQV97Q4R-6" edge="1">
          <mxGeometry relative="1" as="geometry">
            <mxPoint x="130" y="130" as="targetPoint" />
          </mxGeometry>
        </mxCell>
        <mxCell id="HEPH94IzApa0JQV97Q4R-49" value="校验状态机" style="rounded=0;whiteSpace=wrap;html=1;" parent="HEPH94IzApa0JQV97Q4R-5" vertex="1">
          <mxGeometry x="70" y="130" width="120" height="60" as="geometry" />
        </mxCell>
        <mxCell id="HEPH94IzApa0JQV97Q4R-50" value="是否有扣款单号" style="rhombus;whiteSpace=wrap;html=1;rounded=0;" parent="HEPH94IzApa0JQV97Q4R-5" vertex="1">
          <mxGeometry x="85" y="230" width="90" height="60" as="geometry" />
        </mxCell>
        <mxCell id="HEPH94IzApa0JQV97Q4R-51" value="" style="edgeStyle=orthogonalEdgeStyle;rounded=0;orthogonalLoop=1;jettySize=auto;html=1;" parent="HEPH94IzApa0JQV97Q4R-5" source="HEPH94IzApa0JQV97Q4R-49" target="HEPH94IzApa0JQV97Q4R-50" edge="1">
          <mxGeometry relative="1" as="geometry" />
        </mxCell>
        <mxCell id="HEPH94IzApa0JQV97Q4R-54" value="生成扣款单号" style="rounded=0;whiteSpace=wrap;html=1;" parent="HEPH94IzApa0JQV97Q4R-5" vertex="1">
          <mxGeometry x="230" y="230" width="120" height="60" as="geometry" />
        </mxCell>
        <mxCell id="HEPH94IzApa0JQV97Q4R-53" value="N" style="edgeStyle=orthogonalEdgeStyle;rounded=0;orthogonalLoop=1;jettySize=auto;html=1;exitX=1;exitY=0.5;exitDx=0;exitDy=0;" parent="HEPH94IzApa0JQV97Q4R-5" source="HEPH94IzApa0JQV97Q4R-50" target="HEPH94IzApa0JQV97Q4R-54" edge="1">
          <mxGeometry relative="1" as="geometry">
            <mxPoint x="230" y="260" as="targetPoint" />
          </mxGeometry>
        </mxCell>
        <mxCell id="HEPH94IzApa0JQV97Q4R-57" value="是否扣款成功" style="rhombus;whiteSpace=wrap;html=1;rounded=0;" parent="HEPH94IzApa0JQV97Q4R-5" vertex="1">
          <mxGeometry x="85" y="340" width="90" height="60" as="geometry" />
        </mxCell>
        <mxCell id="HEPH94IzApa0JQV97Q4R-52" value="Y" style="edgeStyle=orthogonalEdgeStyle;rounded=0;orthogonalLoop=1;jettySize=auto;html=1;exitX=0.5;exitY=1;exitDx=0;exitDy=0;entryX=0.5;entryY=0;entryDx=0;entryDy=0;" parent="HEPH94IzApa0JQV97Q4R-5" source="HEPH94IzApa0JQV97Q4R-50" target="HEPH94IzApa0JQV97Q4R-57" edge="1">
          <mxGeometry relative="1" as="geometry">
            <mxPoint x="130" y="340" as="targetPoint" />
          </mxGeometry>
        </mxCell>
        <mxCell id="HEPH94IzApa0JQV97Q4R-61" value="回查扣款结果" style="rounded=0;whiteSpace=wrap;html=1;" parent="HEPH94IzApa0JQV97Q4R-5" vertex="1">
          <mxGeometry x="230" y="340" width="120" height="60" as="geometry" />
        </mxCell>
        <mxCell id="HEPH94IzApa0JQV97Q4R-60" value="N" style="edgeStyle=orthogonalEdgeStyle;rounded=0;orthogonalLoop=1;jettySize=auto;html=1;exitX=1;exitY=0.5;exitDx=0;exitDy=0;" parent="HEPH94IzApa0JQV97Q4R-5" source="HEPH94IzApa0JQV97Q4R-57" target="HEPH94IzApa0JQV97Q4R-61" edge="1">
          <mxGeometry relative="1" as="geometry">
            <mxPoint x="230" y="370" as="targetPoint" />
          </mxGeometry>
        </mxCell>
        <mxCell id="XHSK-ZXNEdqsNm36R-xS-6" value="Y" style="edgeStyle=orthogonalEdgeStyle;rounded=0;orthogonalLoop=1;jettySize=auto;html=1;exitX=0.5;exitY=1;exitDx=0;exitDy=0;" parent="HEPH94IzApa0JQV97Q4R-5" source="XHSK-ZXNEdqsNm36R-xS-4" target="XHSK-ZXNEdqsNm36R-xS-5" edge="1">
          <mxGeometry relative="1" as="geometry" />
        </mxCell>
        <mxCell id="XHSK-ZXNEdqsNm36R-xS-10" value="N" style="edgeStyle=orthogonalEdgeStyle;rounded=0;orthogonalLoop=1;jettySize=auto;html=1;exitX=1;exitY=0.5;exitDx=0;exitDy=0;entryX=0;entryY=0.5;entryDx=0;entryDy=0;" parent="HEPH94IzApa0JQV97Q4R-5" source="XHSK-ZXNEdqsNm36R-xS-4" target="XHSK-ZXNEdqsNm36R-xS-9" edge="1">
          <mxGeometry relative="1" as="geometry" />
        </mxCell>
        <mxCell id="XHSK-ZXNEdqsNm36R-xS-4" value="是否扣款成功" style="rhombus;whiteSpace=wrap;html=1;rounded=0;" parent="HEPH94IzApa0JQV97Q4R-5" vertex="1">
          <mxGeometry x="245" y="440" width="90" height="60" as="geometry" />
        </mxCell>
        <mxCell id="XHSK-ZXNEdqsNm36R-xS-5" value="提交审核" style="rounded=0;whiteSpace=wrap;html=1;" parent="HEPH94IzApa0JQV97Q4R-5" vertex="1">
          <mxGeometry x="70" y="1090" width="120" height="60" as="geometry" />
        </mxCell>
        <mxCell id="XHSK-ZXNEdqsNm36R-xS-2" value="Y" style="edgeStyle=orthogonalEdgeStyle;rounded=0;orthogonalLoop=1;jettySize=auto;html=1;exitX=0.5;exitY=1;exitDx=0;exitDy=0;entryX=0.5;entryY=0;entryDx=0;entryDy=0;" parent="HEPH94IzApa0JQV97Q4R-5" source="HEPH94IzApa0JQV97Q4R-57" target="XHSK-ZXNEdqsNm36R-xS-5" edge="1">
          <mxGeometry relative="1" as="geometry">
            <mxPoint x="130" y="460" as="targetPoint" />
          </mxGeometry>
        </mxCell>
        <mxCell id="XHSK-ZXNEdqsNm36R-xS-11" style="edgeStyle=orthogonalEdgeStyle;rounded=0;orthogonalLoop=1;jettySize=auto;html=1;exitX=0.5;exitY=1;exitDx=0;exitDy=0;entryX=0.5;entryY=0;entryDx=0;entryDy=0;" parent="HEPH94IzApa0JQV97Q4R-5" source="XHSK-ZXNEdqsNm36R-xS-8" target="XHSK-ZXNEdqsNm36R-xS-9" edge="1">
          <mxGeometry relative="1" as="geometry" />
        </mxCell>
        <mxCell id="XHSK-ZXNEdqsNm36R-xS-8" value="更新广告计划&lt;br&gt;写入扣款单号&lt;br&gt;扣款状态=发起扣款" style="rounded=0;whiteSpace=wrap;html=1;fillColor=#d5e8d4;strokeColor=#82b366;" parent="HEPH94IzApa0JQV97Q4R-5" vertex="1">
          <mxGeometry x="410" y="230" width="120" height="60" as="geometry" />
        </mxCell>
        <mxCell id="XHSK-ZXNEdqsNm36R-xS-7" style="edgeStyle=orthogonalEdgeStyle;rounded=0;orthogonalLoop=1;jettySize=auto;html=1;exitX=1;exitY=0.5;exitDx=0;exitDy=0;" parent="HEPH94IzApa0JQV97Q4R-5" source="HEPH94IzApa0JQV97Q4R-54" target="XHSK-ZXNEdqsNm36R-xS-8" edge="1">
          <mxGeometry relative="1" as="geometry">
            <mxPoint x="430" y="260" as="targetPoint" />
          </mxGeometry>
        </mxCell>
        <mxCell id="XHSK-ZXNEdqsNm36R-xS-9" value="进入扣款流程" style="rounded=0;whiteSpace=wrap;html=1;" parent="HEPH94IzApa0JQV97Q4R-5" vertex="1">
          <mxGeometry x="410" y="440" width="120" height="60" as="geometry" />
        </mxCell>
        <mxCell id="XHSK-ZXNEdqsNm36R-xS-15" value="查询余额" style="rounded=0;whiteSpace=wrap;html=1;" parent="HEPH94IzApa0JQV97Q4R-5" vertex="1">
          <mxGeometry x="410" y="540" width="120" height="60" as="geometry" />
        </mxCell>
        <mxCell id="XHSK-ZXNEdqsNm36R-xS-14" style="edgeStyle=orthogonalEdgeStyle;rounded=0;orthogonalLoop=1;jettySize=auto;html=1;exitX=0.5;exitY=1;exitDx=0;exitDy=0;" parent="HEPH94IzApa0JQV97Q4R-5" source="XHSK-ZXNEdqsNm36R-xS-9" target="XHSK-ZXNEdqsNm36R-xS-15" edge="1">
          <mxGeometry relative="1" as="geometry">
            <mxPoint x="470" y="540" as="targetPoint" />
          </mxGeometry>
        </mxCell>
        <mxCell id="XHSK-ZXNEdqsNm36R-xS-19" value="余额是否足够" style="rhombus;whiteSpace=wrap;html=1;" parent="HEPH94IzApa0JQV97Q4R-5" vertex="1">
          <mxGeometry x="430" y="630" width="80" height="60" as="geometry" />
        </mxCell>
        <mxCell id="XHSK-ZXNEdqsNm36R-xS-18" style="edgeStyle=orthogonalEdgeStyle;rounded=0;orthogonalLoop=1;jettySize=auto;html=1;exitX=0.5;exitY=1;exitDx=0;exitDy=0;" parent="HEPH94IzApa0JQV97Q4R-5" source="XHSK-ZXNEdqsNm36R-xS-15" target="XHSK-ZXNEdqsNm36R-xS-19" edge="1">
          <mxGeometry relative="1" as="geometry">
            <mxPoint x="470" y="630" as="targetPoint" />
          </mxGeometry>
        </mxCell>
        <mxCell id="XHSK-ZXNEdqsNm36R-xS-46" value="发起扣款" style="rounded=0;whiteSpace=wrap;html=1;" parent="HEPH94IzApa0JQV97Q4R-5" vertex="1">
          <mxGeometry x="410" y="840" width="120" height="60" as="geometry" />
        </mxCell>
        <mxCell id="XHSK-ZXNEdqsNm36R-xS-20" value="Y" style="edgeStyle=orthogonalEdgeStyle;rounded=0;orthogonalLoop=1;jettySize=auto;html=1;exitX=0.5;exitY=1;exitDx=0;exitDy=0;" parent="HEPH94IzApa0JQV97Q4R-5" source="XHSK-ZXNEdqsNm36R-xS-19" edge="1">
          <mxGeometry relative="1" as="geometry">
            <mxPoint x="470" y="740" as="targetPoint" />
          </mxGeometry>
        </mxCell>
        <mxCell id="XHSK-ZXNEdqsNm36R-xS-51" value="Y" style="edgeStyle=orthogonalEdgeStyle;rounded=0;orthogonalLoop=1;jettySize=auto;html=1;exitX=0;exitY=0.5;exitDx=0;exitDy=0;" parent="HEPH94IzApa0JQV97Q4R-5" source="XHSK-ZXNEdqsNm36R-xS-50" target="XHSK-ZXNEdqsNm36R-xS-5" edge="1">
          <mxGeometry relative="1" as="geometry" />
        </mxCell>
        <mxCell id="XHSK-ZXNEdqsNm36R-xS-50" value="扣款成功" style="rhombus;whiteSpace=wrap;html=1;" parent="HEPH94IzApa0JQV97Q4R-5" vertex="1">
          <mxGeometry x="430" y="1020" width="80" height="60" as="geometry" />
        </mxCell>
        <mxCell id="XHSK-ZXNEdqsNm36R-xS-49" style="edgeStyle=orthogonalEdgeStyle;rounded=0;orthogonalLoop=1;jettySize=auto;html=1;exitX=0.5;exitY=1;exitDx=0;exitDy=0;" parent="HEPH94IzApa0JQV97Q4R-5" source="XHSK-ZXNEdqsNm36R-xS-46" edge="1">
          <mxGeometry relative="1" as="geometry">
            <mxPoint x="470" y="940" as="targetPoint" />
          </mxGeometry>
        </mxCell>
        <mxCell id="XHSK-ZXNEdqsNm36R-xS-53" style="edgeStyle=orthogonalEdgeStyle;rounded=0;orthogonalLoop=1;jettySize=auto;html=1;exitX=0.5;exitY=1;exitDx=0;exitDy=0;" parent="HEPH94IzApa0JQV97Q4R-5" source="XHSK-ZXNEdqsNm36R-xS-52" target="XHSK-ZXNEdqsNm36R-xS-46" edge="1">
          <mxGeometry relative="1" as="geometry" />
        </mxCell>
        <mxCell id="XHSK-ZXNEdqsNm36R-xS-52" value="更新广告计划&lt;br&gt;扣款状态=发起扣款" style="rounded=0;whiteSpace=wrap;html=1;fillColor=#d5e8d4;strokeColor=#82b366;" parent="HEPH94IzApa0JQV97Q4R-5" vertex="1">
          <mxGeometry x="410" y="740" width="120" height="60" as="geometry" />
        </mxCell>
        <mxCell id="XHSK-ZXNEdqsNm36R-xS-55" style="edgeStyle=orthogonalEdgeStyle;rounded=0;orthogonalLoop=1;jettySize=auto;html=1;exitX=0.5;exitY=1;exitDx=0;exitDy=0;entryX=0.5;entryY=0;entryDx=0;entryDy=0;" parent="HEPH94IzApa0JQV97Q4R-5" source="XHSK-ZXNEdqsNm36R-xS-54" target="XHSK-ZXNEdqsNm36R-xS-50" edge="1">
          <mxGeometry relative="1" as="geometry" />
        </mxCell>
        <mxCell id="XHSK-ZXNEdqsNm36R-xS-54" value="更新广告计划&lt;br&gt;扣款状态=成功/失败" style="rounded=0;whiteSpace=wrap;html=1;fillColor=#d5e8d4;strokeColor=#82b366;" parent="HEPH94IzApa0JQV97Q4R-5" vertex="1">
          <mxGeometry x="410" y="940" width="120" height="60" as="geometry" />
        </mxCell>
        <mxCell id="XHSK-ZXNEdqsNm36R-xS-65" value="进入审核成功流程" style="rounded=0;whiteSpace=wrap;html=1;" parent="HEPH94IzApa0JQV97Q4R-5" vertex="1">
          <mxGeometry x="70" y="1204" width="120" height="60" as="geometry" />
        </mxCell>
        <mxCell id="XHSK-ZXNEdqsNm36R-xS-107" style="edgeStyle=orthogonalEdgeStyle;rounded=0;orthogonalLoop=1;jettySize=auto;html=1;exitX=0.5;exitY=1;exitDx=0;exitDy=0;entryX=0.5;entryY=0;entryDx=0;entryDy=0;" parent="HEPH94IzApa0JQV97Q4R-5" source="XHSK-ZXNEdqsNm36R-xS-68" target="XHSK-ZXNEdqsNm36R-xS-105" edge="1">
          <mxGeometry relative="1" as="geometry" />
        </mxCell>
        <mxCell id="XHSK-ZXNEdqsNm36R-xS-68" value="更新广告计划&lt;br&gt;状态=审核通过" style="rounded=0;whiteSpace=wrap;html=1;fillColor=#d5e8d4;strokeColor=#82b366;" parent="HEPH94IzApa0JQV97Q4R-5" vertex="1">
          <mxGeometry x="70" y="1300" width="120" height="60" as="geometry" />
        </mxCell>
        <mxCell id="XHSK-ZXNEdqsNm36R-xS-105" value="写入广告计划列表缓存" style="rounded=0;whiteSpace=wrap;html=1;fillColor=#ffe6cc;strokeColor=#d79b00;" parent="HEPH94IzApa0JQV97Q4R-5" vertex="1">
          <mxGeometry x="70" y="1390" width="120" height="60" as="geometry" />
        </mxCell>
        <mxCell id="XHSK-ZXNEdqsNm36R-xS-111" style="edgeStyle=orthogonalEdgeStyle;rounded=0;orthogonalLoop=1;jettySize=auto;html=1;exitX=0.5;exitY=1;exitDx=0;exitDy=0;entryX=0.5;entryY=0;entryDx=0;entryDy=0;" parent="HEPH94IzApa0JQV97Q4R-5" source="XHSK-ZXNEdqsNm36R-xS-109" target="XHSK-ZXNEdqsNm36R-xS-110" edge="1">
          <mxGeometry relative="1" as="geometry" />
        </mxCell>
        <mxCell id="XHSK-ZXNEdqsNm36R-xS-109" value="写入广告计划计数值缓存" style="rounded=0;whiteSpace=wrap;html=1;fillColor=#ffe6cc;strokeColor=#d79b00;" parent="HEPH94IzApa0JQV97Q4R-5" vertex="1">
          <mxGeometry x="70" y="1490" width="120" height="60" as="geometry" />
        </mxCell>
        <mxCell id="XHSK-ZXNEdqsNm36R-xS-110" value="发送广告计划上线MQ" style="rounded=0;whiteSpace=wrap;html=1;" parent="HEPH94IzApa0JQV97Q4R-5" vertex="1">
          <mxGeometry x="70" y="1590" width="120" height="60" as="geometry" />
        </mxCell>
        <mxCell id="XHSK-ZXNEdqsNm36R-xS-160" style="edgeStyle=orthogonalEdgeStyle;rounded=0;orthogonalLoop=1;jettySize=auto;html=1;entryX=0.5;entryY=0;entryDx=0;entryDy=0;" parent="HEPH94IzApa0JQV97Q4R-5" source="XHSK-ZXNEdqsNm36R-xS-116" target="XHSK-ZXNEdqsNm36R-xS-159" edge="1">
          <mxGeometry relative="1" as="geometry" />
        </mxCell>
        <mxCell id="XHSK-ZXNEdqsNm36R-xS-116" value="进入审核失败流程" style="rounded=0;whiteSpace=wrap;html=1;" parent="HEPH94IzApa0JQV97Q4R-5" vertex="1">
          <mxGeometry x="70" y="1700" width="120" height="60" as="geometry" />
        </mxCell>
        <mxCell id="XHSK-ZXNEdqsNm36R-xS-159" value="更新广告计划&lt;br&gt;状态=审核失败" style="rounded=0;whiteSpace=wrap;html=1;fillColor=#d5e8d4;strokeColor=#82b366;" parent="HEPH94IzApa0JQV97Q4R-5" vertex="1">
          <mxGeometry x="70" y="1810" width="120" height="60" as="geometry" />
        </mxCell>
        <mxCell id="XHSK-ZXNEdqsNm36R-xS-206" value="进入退款流程" style="rounded=0;whiteSpace=wrap;html=1;" parent="HEPH94IzApa0JQV97Q4R-5" vertex="1">
          <mxGeometry x="70" y="1900" width="120" height="60" as="geometry" />
        </mxCell>
        <mxCell id="XHSK-ZXNEdqsNm36R-xS-161" style="edgeStyle=orthogonalEdgeStyle;rounded=0;orthogonalLoop=1;jettySize=auto;html=1;exitX=0.5;exitY=1;exitDx=0;exitDy=0;" parent="HEPH94IzApa0JQV97Q4R-5" source="XHSK-ZXNEdqsNm36R-xS-159" target="XHSK-ZXNEdqsNm36R-xS-206" edge="1">
          <mxGeometry relative="1" as="geometry">
            <mxPoint x="130" y="1910" as="targetPoint" />
          </mxGeometry>
        </mxCell>
        <mxCell id="XHSK-ZXNEdqsNm36R-xS-210" value="是否已扣款成功" style="rhombus;whiteSpace=wrap;html=1;" parent="HEPH94IzApa0JQV97Q4R-5" vertex="1">
          <mxGeometry x="90" y="1990" width="80" height="60" as="geometry" />
        </mxCell>
        <mxCell id="XHSK-ZXNEdqsNm36R-xS-208" style="edgeStyle=orthogonalEdgeStyle;rounded=0;orthogonalLoop=1;jettySize=auto;html=1;exitX=0.5;exitY=1;exitDx=0;exitDy=0;" parent="HEPH94IzApa0JQV97Q4R-5" source="XHSK-ZXNEdqsNm36R-xS-206" target="XHSK-ZXNEdqsNm36R-xS-210" edge="1">
          <mxGeometry relative="1" as="geometry">
            <mxPoint x="130" y="1990" as="targetPoint" />
          </mxGeometry>
        </mxCell>
        <mxCell id="XHSK-ZXNEdqsNm36R-xS-214" value="更新广告计划&lt;br&gt;扣款状态=发起退款" style="rounded=0;whiteSpace=wrap;html=1;fillColor=#d5e8d4;strokeColor=#82b366;" parent="HEPH94IzApa0JQV97Q4R-5" vertex="1">
          <mxGeometry x="70" y="2090" width="120" height="60" as="geometry" />
        </mxCell>
        <mxCell id="XHSK-ZXNEdqsNm36R-xS-216" value="发起退款" style="rounded=0;whiteSpace=wrap;html=1;" parent="HEPH94IzApa0JQV97Q4R-5" vertex="1">
          <mxGeometry x="70" y="2180" width="120" height="60" as="geometry" />
        </mxCell>
        <mxCell id="XHSK-ZXNEdqsNm36R-xS-220" value="更新广告计划&lt;br&gt;扣款状态=退款结果" style="rounded=0;whiteSpace=wrap;html=1;fillColor=#d5e8d4;strokeColor=#82b366;" parent="HEPH94IzApa0JQV97Q4R-5" vertex="1">
          <mxGeometry x="70" y="2280" width="120" height="60" as="geometry" />
        </mxCell>
        <mxCell id="HEPH94IzApa0JQV97Q4R-30" value="红包系统" style="swimlane;html=1;startSize=20;" parent="HEPH94IzApa0JQV97Q4R-0" vertex="1">
          <mxGeometry x="740" y="20" width="190" height="2490" as="geometry" />
        </mxCell>
        <mxCell id="XHSK-ZXNEdqsNm36R-xS-1" value="根据扣款单查询扣款状态" style="rounded=0;whiteSpace=wrap;html=1;" parent="HEPH94IzApa0JQV97Q4R-30" vertex="1">
          <mxGeometry x="40" y="340" width="120" height="60" as="geometry" />
        </mxCell>
        <mxCell id="XHSK-ZXNEdqsNm36R-xS-17" value="查询余额" style="rounded=0;whiteSpace=wrap;html=1;" parent="HEPH94IzApa0JQV97Q4R-30" vertex="1">
          <mxGeometry x="40" y="540" width="120" height="60" as="geometry" />
        </mxCell>
        <mxCell id="XHSK-ZXNEdqsNm36R-xS-48" value="扣款" style="rounded=0;whiteSpace=wrap;html=1;" parent="HEPH94IzApa0JQV97Q4R-30" vertex="1">
          <mxGeometry x="40" y="840" width="120" height="60" as="geometry" />
        </mxCell>
        <mxCell id="XHSK-ZXNEdqsNm36R-xS-218" value="发起退款" style="rounded=0;whiteSpace=wrap;html=1;" parent="HEPH94IzApa0JQV97Q4R-30" vertex="1">
          <mxGeometry x="40" y="2180" width="120" height="60" as="geometry" />
        </mxCell>
        <mxCell id="HEPH94IzApa0JQV97Q4R-32" value="审核系统" style="swimlane;html=1;startSize=20;" parent="HEPH94IzApa0JQV97Q4R-0" vertex="1">
          <mxGeometry x="930" y="20" width="190" height="2490" as="geometry" />
        </mxCell>
        <mxCell id="XHSK-ZXNEdqsNm36R-xS-58" value="提交审核" style="rounded=0;whiteSpace=wrap;html=1;" parent="HEPH94IzApa0JQV97Q4R-32" vertex="1">
          <mxGeometry x="50" y="1090" width="120" height="60" as="geometry" />
        </mxCell>
        <mxCell id="XHSK-ZXNEdqsNm36R-xS-64" value="审核成功回调" style="rounded=1;whiteSpace=wrap;html=1;" parent="HEPH94IzApa0JQV97Q4R-32" vertex="1">
          <mxGeometry x="50" y="1204" width="120" height="60" as="geometry" />
        </mxCell>
        <mxCell id="XHSK-ZXNEdqsNm36R-xS-114" value="审核失败回调" style="rounded=1;whiteSpace=wrap;html=1;" parent="HEPH94IzApa0JQV97Q4R-32" vertex="1">
          <mxGeometry x="35" y="1700" width="120" height="60" as="geometry" />
        </mxCell>
        <mxCell id="XHSK-ZXNEdqsNm36R-xS-63" style="edgeStyle=orthogonalEdgeStyle;rounded=0;orthogonalLoop=1;jettySize=auto;html=1;exitX=0;exitY=0.5;exitDx=0;exitDy=0;entryX=1;entryY=0.5;entryDx=0;entryDy=0;" parent="HEPH94IzApa0JQV97Q4R-0" source="XHSK-ZXNEdqsNm36R-xS-5" target="XHSK-ZXNEdqsNm36R-xS-62" edge="1">
          <mxGeometry relative="1" as="geometry" />
        </mxCell>
        <mxCell id="XHSK-ZXNEdqsNm36R-xS-66" style="edgeStyle=orthogonalEdgeStyle;rounded=0;orthogonalLoop=1;jettySize=auto;html=1;entryX=1;entryY=0.5;entryDx=0;entryDy=0;" parent="HEPH94IzApa0JQV97Q4R-0" source="XHSK-ZXNEdqsNm36R-xS-64" target="XHSK-ZXNEdqsNm36R-xS-65" edge="1">
          <mxGeometry relative="1" as="geometry" />
        </mxCell>
        <mxCell id="XHSK-ZXNEdqsNm36R-xS-113" style="edgeStyle=orthogonalEdgeStyle;rounded=0;orthogonalLoop=1;jettySize=auto;html=1;exitX=0;exitY=0.5;exitDx=0;exitDy=0;entryX=1;entryY=0.5;entryDx=0;entryDy=0;" parent="HEPH94IzApa0JQV97Q4R-0" source="XHSK-ZXNEdqsNm36R-xS-110" target="XHSK-ZXNEdqsNm36R-xS-112" edge="1">
          <mxGeometry relative="1" as="geometry" />
        </mxCell>
        <mxCell id="XHSK-ZXNEdqsNm36R-xS-115" style="edgeStyle=orthogonalEdgeStyle;rounded=0;orthogonalLoop=1;jettySize=auto;html=1;" parent="HEPH94IzApa0JQV97Q4R-0" source="XHSK-ZXNEdqsNm36R-xS-114" target="XHSK-ZXNEdqsNm36R-xS-116" edge="1">
          <mxGeometry relative="1" as="geometry">
            <mxPoint x="350" y="1750" as="targetPoint" />
          </mxGeometry>
        </mxCell>
        <mxCell id="XHSK-ZXNEdqsNm36R-xS-217" style="edgeStyle=orthogonalEdgeStyle;rounded=0;orthogonalLoop=1;jettySize=auto;html=1;" parent="HEPH94IzApa0JQV97Q4R-0" source="XHSK-ZXNEdqsNm36R-xS-216" target="XHSK-ZXNEdqsNm36R-xS-218" edge="1">
          <mxGeometry relative="1" as="geometry">
            <mxPoint x="790" y="2230" as="targetPoint" />
          </mxGeometry>
        </mxCell>
        <mxCell id="XHSK-ZXNEdqsNm36R-xS-226" style="edgeStyle=orthogonalEdgeStyle;rounded=0;orthogonalLoop=1;jettySize=auto;html=1;exitX=0;exitY=0.5;exitDx=0;exitDy=0;entryX=1;entryY=0.5;entryDx=0;entryDy=0;" parent="HEPH94IzApa0JQV97Q4R-0" source="XHSK-ZXNEdqsNm36R-xS-220" target="XHSK-ZXNEdqsNm36R-xS-225" edge="1">
          <mxGeometry relative="1" as="geometry" />
        </mxCell>
        <mxCell id="XHSK-ZXNEdqsNm36R-xS-0" style="edgeStyle=orthogonalEdgeStyle;rounded=0;orthogonalLoop=1;jettySize=auto;html=1;exitX=1;exitY=0.5;exitDx=0;exitDy=0;" parent="90bquAA0Ym70A24eKpCr-1" source="HEPH94IzApa0JQV97Q4R-61" edge="1">
          <mxGeometry relative="1" as="geometry">
            <mxPoint x="910" y="860" as="targetPoint" />
          </mxGeometry>
        </mxCell>
        <mxCell id="XHSK-ZXNEdqsNm36R-xS-3" style="edgeStyle=orthogonalEdgeStyle;rounded=0;orthogonalLoop=1;jettySize=auto;html=1;exitX=0.5;exitY=1;exitDx=0;exitDy=0;" parent="90bquAA0Ym70A24eKpCr-1" source="HEPH94IzApa0JQV97Q4R-61" edge="1">
          <mxGeometry relative="1" as="geometry">
            <mxPoint x="580" y="930" as="targetPoint" />
          </mxGeometry>
        </mxCell>
        <mxCell id="XHSK-ZXNEdqsNm36R-xS-16" style="edgeStyle=orthogonalEdgeStyle;rounded=0;orthogonalLoop=1;jettySize=auto;html=1;exitX=1;exitY=0.5;exitDx=0;exitDy=0;" parent="90bquAA0Ym70A24eKpCr-1" source="XHSK-ZXNEdqsNm36R-xS-15" edge="1">
          <mxGeometry relative="1" as="geometry">
            <mxPoint x="910" y="1060" as="targetPoint" />
          </mxGeometry>
        </mxCell>
        <mxCell id="XHSK-ZXNEdqsNm36R-xS-47" style="edgeStyle=orthogonalEdgeStyle;rounded=0;orthogonalLoop=1;jettySize=auto;html=1;" parent="90bquAA0Ym70A24eKpCr-1" source="XHSK-ZXNEdqsNm36R-xS-46" edge="1">
          <mxGeometry relative="1" as="geometry">
            <mxPoint x="910" y="1360" as="targetPoint" />
          </mxGeometry>
        </mxCell>
        <mxCell id="XHSK-ZXNEdqsNm36R-xS-57" style="edgeStyle=orthogonalEdgeStyle;rounded=0;orthogonalLoop=1;jettySize=auto;html=1;" parent="90bquAA0Ym70A24eKpCr-1" source="XHSK-ZXNEdqsNm36R-xS-5" edge="1">
          <mxGeometry relative="1" as="geometry">
            <mxPoint x="1110" y="1610" as="targetPoint" />
          </mxGeometry>
        </mxCell>
        <mxCell id="XHSK-ZXNEdqsNm36R-xS-67" style="edgeStyle=orthogonalEdgeStyle;rounded=0;orthogonalLoop=1;jettySize=auto;html=1;exitX=0.5;exitY=1;exitDx=0;exitDy=0;" parent="90bquAA0Ym70A24eKpCr-1" source="XHSK-ZXNEdqsNm36R-xS-65" edge="1">
          <mxGeometry relative="1" as="geometry">
            <mxPoint x="420" y="1790" as="targetPoint" />
          </mxGeometry>
        </mxCell>
        <mxCell id="XHSK-ZXNEdqsNm36R-xS-108" style="edgeStyle=orthogonalEdgeStyle;rounded=0;orthogonalLoop=1;jettySize=auto;html=1;" parent="90bquAA0Ym70A24eKpCr-1" source="XHSK-ZXNEdqsNm36R-xS-105" edge="1">
          <mxGeometry relative="1" as="geometry">
            <mxPoint x="420" y="1980" as="targetPoint" />
          </mxGeometry>
        </mxCell>
        <mxCell id="XHSK-ZXNEdqsNm36R-xS-212" value="Y" style="edgeStyle=orthogonalEdgeStyle;rounded=0;orthogonalLoop=1;jettySize=auto;html=1;exitX=0.5;exitY=1;exitDx=0;exitDy=0;" parent="90bquAA0Ym70A24eKpCr-1" source="XHSK-ZXNEdqsNm36R-xS-210" edge="1">
          <mxGeometry relative="1" as="geometry">
            <mxPoint x="420" y="2580" as="targetPoint" />
          </mxGeometry>
        </mxCell>
        <mxCell id="XHSK-ZXNEdqsNm36R-xS-215" style="edgeStyle=orthogonalEdgeStyle;rounded=0;orthogonalLoop=1;jettySize=auto;html=1;exitX=0.5;exitY=1;exitDx=0;exitDy=0;" parent="90bquAA0Ym70A24eKpCr-1" source="XHSK-ZXNEdqsNm36R-xS-214" edge="1">
          <mxGeometry relative="1" as="geometry">
            <mxPoint x="420" y="2670" as="targetPoint" />
          </mxGeometry>
        </mxCell>
        <mxCell id="XHSK-ZXNEdqsNm36R-xS-219" style="edgeStyle=orthogonalEdgeStyle;rounded=0;orthogonalLoop=1;jettySize=auto;html=1;" parent="90bquAA0Ym70A24eKpCr-1" source="XHSK-ZXNEdqsNm36R-xS-216" edge="1">
          <mxGeometry relative="1" as="geometry">
            <mxPoint x="420" y="2770" as="targetPoint" />
          </mxGeometry>
        </mxCell>
      </root>
    </mxGraphModel>
  </diagram>
  <diagram id="zevZZE4cGWD3ekvHjkzA" name="广告计划下架">
    <mxGraphModel dx="1422" dy="762" grid="1" gridSize="10" guides="1" tooltips="1" connect="1" arrows="1" fold="1" page="1" pageScale="1" pageWidth="827" pageHeight="1169" math="0" shadow="0">
      <root>
        <mxCell id="ne50XbdtX8eLIGHbLVGn-0" />
        <mxCell id="ne50XbdtX8eLIGHbLVGn-1" parent="ne50XbdtX8eLIGHbLVGn-0" />
        <mxCell id="XTOCs1bwAy_2wQHEAPqo-0" value="广告计划下架" style="swimlane;html=1;childLayout=stackLayout;resizeParent=1;resizeParentMax=0;startSize=20;" parent="ne50XbdtX8eLIGHbLVGn-1" vertex="1">
          <mxGeometry x="130" y="470" width="810" height="550" as="geometry" />
        </mxCell>
        <mxCell id="XTOCs1bwAy_2wQHEAPqo-1" value="商户/管理端" style="swimlane;html=1;startSize=20;" parent="XTOCs1bwAy_2wQHEAPqo-0" vertex="1">
          <mxGeometry y="20" width="160" height="530" as="geometry" />
        </mxCell>
        <mxCell id="XTOCs1bwAy_2wQHEAPqo-2" value="广告计划下架" style="rounded=1;whiteSpace=wrap;html=1;" parent="XTOCs1bwAy_2wQHEAPqo-1" vertex="1">
          <mxGeometry x="20" y="35" width="120" height="60" as="geometry" />
        </mxCell>
        <mxCell id="ilvxqPu1tewRR5u8zR6--8" value="结束" style="rounded=1;whiteSpace=wrap;html=1;" parent="XTOCs1bwAy_2wQHEAPqo-1" vertex="1">
          <mxGeometry x="20" y="460" width="120" height="60" as="geometry" />
        </mxCell>
        <mxCell id="XTOCs1bwAy_2wQHEAPqo-6" style="edgeStyle=orthogonalEdgeStyle;rounded=0;orthogonalLoop=1;jettySize=auto;html=1;exitX=1;exitY=0.5;exitDx=0;exitDy=0;entryX=0;entryY=0.5;entryDx=0;entryDy=0;" parent="XTOCs1bwAy_2wQHEAPqo-0" source="XTOCs1bwAy_2wQHEAPqo-2" target="XTOCs1bwAy_2wQHEAPqo-8" edge="1">
          <mxGeometry relative="1" as="geometry">
            <mxPoint x="200" y="85" as="sourcePoint" />
          </mxGeometry>
        </mxCell>
        <mxCell id="XTOCs1bwAy_2wQHEAPqo-7" value="广告计划模块" style="swimlane;html=1;startSize=20;" parent="XTOCs1bwAy_2wQHEAPqo-0" vertex="1">
          <mxGeometry x="160" y="20" width="370" height="530" as="geometry" />
        </mxCell>
        <mxCell id="XTOCs1bwAy_2wQHEAPqo-8" value="校验状态机" style="rounded=0;whiteSpace=wrap;html=1;" parent="XTOCs1bwAy_2wQHEAPqo-7" vertex="1">
          <mxGeometry x="70" y="35" width="120" height="60" as="geometry" />
        </mxCell>
        <mxCell id="XTOCs1bwAy_2wQHEAPqo-9" style="edgeStyle=orthogonalEdgeStyle;rounded=0;orthogonalLoop=1;jettySize=auto;html=1;" parent="XTOCs1bwAy_2wQHEAPqo-7" source="XTOCs1bwAy_2wQHEAPqo-8" edge="1">
          <mxGeometry relative="1" as="geometry">
            <mxPoint x="130" y="130" as="targetPoint" />
          </mxGeometry>
        </mxCell>
        <mxCell id="XTOCs1bwAy_2wQHEAPqo-10" value="更新广告计划状态&lt;br&gt;状态=下架" style="rounded=0;whiteSpace=wrap;html=1;fillColor=#d5e8d4;strokeColor=#82b366;" parent="XTOCs1bwAy_2wQHEAPqo-7" vertex="1">
          <mxGeometry x="70" y="130" width="120" height="60" as="geometry" />
        </mxCell>
        <mxCell id="XTOCs1bwAy_2wQHEAPqo-12" value="" style="edgeStyle=orthogonalEdgeStyle;rounded=0;orthogonalLoop=1;jettySize=auto;html=1;entryX=0.5;entryY=0;entryDx=0;entryDy=0;" parent="XTOCs1bwAy_2wQHEAPqo-7" source="XTOCs1bwAy_2wQHEAPqo-10" target="H2DPE5joB9SMGslb0f_L-0" edge="1">
          <mxGeometry relative="1" as="geometry">
            <mxPoint x="130" y="230" as="targetPoint" />
          </mxGeometry>
        </mxCell>
        <mxCell id="H2DPE5joB9SMGslb0f_L-0" value="写入广告计划失效缓存" style="rounded=0;whiteSpace=wrap;html=1;fillColor=#ffe6cc;strokeColor=#d79b00;" parent="XTOCs1bwAy_2wQHEAPqo-7" vertex="1">
          <mxGeometry x="70" y="230" width="120" height="60" as="geometry" />
        </mxCell>
        <mxCell id="ilvxqPu1tewRR5u8zR6--1" value="是否管理端" style="rhombus;whiteSpace=wrap;html=1;" parent="XTOCs1bwAy_2wQHEAPqo-7" vertex="1">
          <mxGeometry x="90" y="320" width="80" height="50" as="geometry" />
        </mxCell>
        <mxCell id="ilvxqPu1tewRR5u8zR6--0" style="edgeStyle=orthogonalEdgeStyle;rounded=0;orthogonalLoop=1;jettySize=auto;html=1;exitX=0.5;exitY=1;exitDx=0;exitDy=0;" parent="XTOCs1bwAy_2wQHEAPqo-7" source="H2DPE5joB9SMGslb0f_L-0" target="ilvxqPu1tewRR5u8zR6--1" edge="1">
          <mxGeometry relative="1" as="geometry">
            <mxPoint x="130" y="320" as="targetPoint" />
          </mxGeometry>
        </mxCell>
        <mxCell id="ilvxqPu1tewRR5u8zR6--4" value="发送下架站内信" style="rounded=0;whiteSpace=wrap;html=1;" parent="XTOCs1bwAy_2wQHEAPqo-7" vertex="1">
          <mxGeometry x="70" y="390" width="120" height="60" as="geometry" />
        </mxCell>
        <mxCell id="ilvxqPu1tewRR5u8zR6--2" style="edgeStyle=orthogonalEdgeStyle;rounded=0;orthogonalLoop=1;jettySize=auto;html=1;exitX=0.5;exitY=1;exitDx=0;exitDy=0;" parent="XTOCs1bwAy_2wQHEAPqo-7" source="ilvxqPu1tewRR5u8zR6--1" target="ilvxqPu1tewRR5u8zR6--4" edge="1">
          <mxGeometry relative="1" as="geometry">
            <mxPoint x="130" y="400" as="targetPoint" />
          </mxGeometry>
        </mxCell>
        <mxCell id="XTOCs1bwAy_2wQHEAPqo-58" value="消息系统" style="swimlane;html=1;startSize=20;" parent="XTOCs1bwAy_2wQHEAPqo-0" vertex="1">
          <mxGeometry x="530" y="20" width="280" height="530" as="geometry" />
        </mxCell>
        <mxCell id="ilvxqPu1tewRR5u8zR6--7" value="消息推送" style="rounded=0;whiteSpace=wrap;html=1;" parent="XTOCs1bwAy_2wQHEAPqo-58" vertex="1">
          <mxGeometry x="70" y="390" width="120" height="60" as="geometry" />
        </mxCell>
        <mxCell id="ilvxqPu1tewRR5u8zR6--9" style="edgeStyle=orthogonalEdgeStyle;rounded=0;orthogonalLoop=1;jettySize=auto;html=1;exitX=0.5;exitY=1;exitDx=0;exitDy=0;entryX=1;entryY=0.5;entryDx=0;entryDy=0;" parent="XTOCs1bwAy_2wQHEAPqo-0" source="ilvxqPu1tewRR5u8zR6--4" target="ilvxqPu1tewRR5u8zR6--8" edge="1">
          <mxGeometry relative="1" as="geometry" />
        </mxCell>
        <mxCell id="ilvxqPu1tewRR5u8zR6--5" style="edgeStyle=orthogonalEdgeStyle;rounded=0;orthogonalLoop=1;jettySize=auto;html=1;exitX=1;exitY=0.5;exitDx=0;exitDy=0;" parent="ne50XbdtX8eLIGHbLVGn-1" source="ilvxqPu1tewRR5u8zR6--4" edge="1">
          <mxGeometry relative="1" as="geometry">
            <mxPoint x="730" y="910" as="targetPoint" />
          </mxGeometry>
        </mxCell>
      </root>
    </mxGraphModel>
  </diagram>
  <diagram id="pp5L3Sd2qrLgmWWv9DzC" name="曝光统计">
    <mxGraphModel dx="1635" dy="902" grid="1" gridSize="10" guides="1" tooltips="1" connect="1" arrows="1" fold="1" page="1" pageScale="1" pageWidth="827" pageHeight="1169" math="0" shadow="0">
      <root>
        <mxCell id="uOho3hO3nzCLooX27CC9-0" />
        <mxCell id="uOho3hO3nzCLooX27CC9-1" parent="uOho3hO3nzCLooX27CC9-0" />
        <mxCell id="XPeFe05pSeoeYRAG0yRP-0" value="曝光统计" style="swimlane;html=1;childLayout=stackLayout;resizeParent=1;resizeParentMax=0;startSize=20;" parent="uOho3hO3nzCLooX27CC9-1" vertex="1">
          <mxGeometry x="130" y="470" width="530" height="2010" as="geometry" />
        </mxCell>
        <mxCell id="XPeFe05pSeoeYRAG0yRP-4" style="edgeStyle=orthogonalEdgeStyle;rounded=0;orthogonalLoop=1;jettySize=auto;html=1;exitX=1;exitY=0.5;exitDx=0;exitDy=0;entryX=0;entryY=0.5;entryDx=0;entryDy=0;" parent="XPeFe05pSeoeYRAG0yRP-0" source="XPeFe05pSeoeYRAG0yRP-2" target="XPeFe05pSeoeYRAG0yRP-6" edge="1">
          <mxGeometry relative="1" as="geometry">
            <mxPoint x="200" y="85" as="sourcePoint" />
          </mxGeometry>
        </mxCell>
        <mxCell id="XPeFe05pSeoeYRAG0yRP-1" value="用户端" style="swimlane;html=1;startSize=20;" parent="XPeFe05pSeoeYRAG0yRP-0" vertex="1">
          <mxGeometry y="20" width="160" height="1990" as="geometry" />
        </mxCell>
        <mxCell id="XPeFe05pSeoeYRAG0yRP-2" value="监听曝光kafka topic" style="rounded=1;whiteSpace=wrap;html=1;" parent="XPeFe05pSeoeYRAG0yRP-1" vertex="1">
          <mxGeometry x="20" y="35" width="120" height="60" as="geometry" />
        </mxCell>
        <mxCell id="V7nTUwQH5bitnzumU2AX-7" value="结束" style="rounded=1;whiteSpace=wrap;html=1;" parent="XPeFe05pSeoeYRAG0yRP-1" vertex="1">
          <mxGeometry x="10" y="650" width="120" height="60" as="geometry" />
        </mxCell>
        <mxCell id="VCBYZFLRC-QHVLFJjjLS-0" value="定时同步缓存到db&lt;br&gt;每半小时跑一次" style="rounded=1;whiteSpace=wrap;html=1;" vertex="1" parent="XPeFe05pSeoeYRAG0yRP-1">
          <mxGeometry x="20" y="820" width="120" height="60" as="geometry" />
        </mxCell>
        <mxCell id="VCBYZFLRC-QHVLFJjjLS-8" value="结束" style="rounded=1;whiteSpace=wrap;html=1;" vertex="1" parent="XPeFe05pSeoeYRAG0yRP-1">
          <mxGeometry x="20" y="1000" width="120" height="60" as="geometry" />
        </mxCell>
        <mxCell id="aRkYkFqwWbnHcXKLK4h_-0" value="定时清除过期缓存&lt;br&gt;每天凌晨跑一次" style="rounded=1;whiteSpace=wrap;html=1;" vertex="1" parent="XPeFe05pSeoeYRAG0yRP-1">
          <mxGeometry x="20" y="1120" width="120" height="60" as="geometry" />
        </mxCell>
        <mxCell id="aRkYkFqwWbnHcXKLK4h_-14" value="结束" style="rounded=1;whiteSpace=wrap;html=1;" vertex="1" parent="XPeFe05pSeoeYRAG0yRP-1">
          <mxGeometry x="20" y="1510" width="120" height="60" as="geometry" />
        </mxCell>
        <mxCell id="578_TW30kGgNHSs3byjk-1" value="结束" style="rounded=1;whiteSpace=wrap;html=1;" vertex="1" parent="XPeFe05pSeoeYRAG0yRP-1">
          <mxGeometry x="20" y="1838" width="120" height="60" as="geometry" />
        </mxCell>
        <mxCell id="578_TW30kGgNHSs3byjk-3" style="edgeStyle=orthogonalEdgeStyle;rounded=0;orthogonalLoop=1;jettySize=auto;html=1;exitX=0;exitY=0.5;exitDx=0;exitDy=0;entryX=1;entryY=0.5;entryDx=0;entryDy=0;" edge="1" parent="XPeFe05pSeoeYRAG0yRP-1" target="578_TW30kGgNHSs3byjk-1">
          <mxGeometry relative="1" as="geometry">
            <mxPoint x="232.5" y="1868" as="sourcePoint" />
          </mxGeometry>
        </mxCell>
        <mxCell id="VCBYZFLRC-QHVLFJjjLS-1" style="edgeStyle=orthogonalEdgeStyle;rounded=0;orthogonalLoop=1;jettySize=auto;html=1;" edge="1" parent="XPeFe05pSeoeYRAG0yRP-0" source="VCBYZFLRC-QHVLFJjjLS-0" target="VCBYZFLRC-QHVLFJjjLS-2">
          <mxGeometry relative="1" as="geometry">
            <mxPoint x="240" y="870" as="targetPoint" />
          </mxGeometry>
        </mxCell>
        <mxCell id="aRkYkFqwWbnHcXKLK4h_-1" style="edgeStyle=orthogonalEdgeStyle;rounded=0;orthogonalLoop=1;jettySize=auto;html=1;entryX=0;entryY=0.5;entryDx=0;entryDy=0;" edge="1" parent="XPeFe05pSeoeYRAG0yRP-0" source="aRkYkFqwWbnHcXKLK4h_-0" target="aRkYkFqwWbnHcXKLK4h_-2">
          <mxGeometry relative="1" as="geometry">
            <mxPoint x="230" y="1170" as="targetPoint" />
          </mxGeometry>
        </mxCell>
        <mxCell id="aRkYkFqwWbnHcXKLK4h_-15" style="edgeStyle=orthogonalEdgeStyle;rounded=0;orthogonalLoop=1;jettySize=auto;html=1;exitX=0;exitY=0.5;exitDx=0;exitDy=0;entryX=1;entryY=0.5;entryDx=0;entryDy=0;" edge="1" parent="XPeFe05pSeoeYRAG0yRP-0" source="aRkYkFqwWbnHcXKLK4h_-13" target="aRkYkFqwWbnHcXKLK4h_-14">
          <mxGeometry relative="1" as="geometry" />
        </mxCell>
        <mxCell id="MqdhVK-HY7xANDIFwz0L-4" style="edgeStyle=orthogonalEdgeStyle;rounded=0;orthogonalLoop=1;jettySize=auto;html=1;entryX=1;entryY=0.5;entryDx=0;entryDy=0;" edge="1" parent="XPeFe05pSeoeYRAG0yRP-0" source="MqdhVK-HY7xANDIFwz0L-2" target="V7nTUwQH5bitnzumU2AX-7">
          <mxGeometry relative="1" as="geometry" />
        </mxCell>
        <mxCell id="XPeFe05pSeoeYRAG0yRP-5" value="广告计划模块" style="swimlane;html=1;startSize=20;" parent="XPeFe05pSeoeYRAG0yRP-0" vertex="1">
          <mxGeometry x="160" y="20" width="370" height="1990" as="geometry" />
        </mxCell>
        <mxCell id="XPeFe05pSeoeYRAG0yRP-6" value="获取曝光事件id列表" style="rounded=0;whiteSpace=wrap;html=1;" parent="XPeFe05pSeoeYRAG0yRP-5" vertex="1">
          <mxGeometry x="70" y="35" width="120" height="60" as="geometry" />
        </mxCell>
        <mxCell id="XPeFe05pSeoeYRAG0yRP-7" style="edgeStyle=orthogonalEdgeStyle;rounded=0;orthogonalLoop=1;jettySize=auto;html=1;" parent="XPeFe05pSeoeYRAG0yRP-5" source="XPeFe05pSeoeYRAG0yRP-6" edge="1">
          <mxGeometry relative="1" as="geometry">
            <mxPoint x="130" y="130" as="targetPoint" />
          </mxGeometry>
        </mxCell>
        <mxCell id="V7nTUwQH5bitnzumU2AX-0" value="过滤不在事件id列表中的消息" style="rounded=0;whiteSpace=wrap;html=1;" parent="XPeFe05pSeoeYRAG0yRP-5" vertex="1">
          <mxGeometry x="70" y="130" width="120" height="60" as="geometry" />
        </mxCell>
        <mxCell id="V7nTUwQH5bitnzumU2AX-1" value="&lt;span&gt;广告计划计数值缓存累加&lt;/span&gt;" style="whiteSpace=wrap;html=1;rounded=0;fillColor=#ffe6cc;strokeColor=#d79b00;" parent="XPeFe05pSeoeYRAG0yRP-5" vertex="1">
          <mxGeometry x="70" y="230" width="120" height="60" as="geometry" />
        </mxCell>
        <mxCell id="V7nTUwQH5bitnzumU2AX-2" value="" style="edgeStyle=orthogonalEdgeStyle;rounded=0;orthogonalLoop=1;jettySize=auto;html=1;" parent="XPeFe05pSeoeYRAG0yRP-5" source="V7nTUwQH5bitnzumU2AX-0" target="V7nTUwQH5bitnzumU2AX-1" edge="1">
          <mxGeometry relative="1" as="geometry" />
        </mxCell>
        <mxCell id="V7nTUwQH5bitnzumU2AX-4" value="当前投放量&lt;br&gt;&amp;gt;=目标投放量" style="rhombus;whiteSpace=wrap;html=1;" parent="XPeFe05pSeoeYRAG0yRP-5" vertex="1">
          <mxGeometry x="72.5" y="320" width="115" height="80" as="geometry" />
        </mxCell>
        <mxCell id="V7nTUwQH5bitnzumU2AX-3" style="edgeStyle=orthogonalEdgeStyle;rounded=0;orthogonalLoop=1;jettySize=auto;html=1;exitX=0.5;exitY=1;exitDx=0;exitDy=0;" parent="XPeFe05pSeoeYRAG0yRP-5" source="V7nTUwQH5bitnzumU2AX-1" target="V7nTUwQH5bitnzumU2AX-4" edge="1">
          <mxGeometry relative="1" as="geometry">
            <mxPoint x="130" y="330" as="targetPoint" />
          </mxGeometry>
        </mxCell>
        <mxCell id="MqdhVK-HY7xANDIFwz0L-1" style="edgeStyle=orthogonalEdgeStyle;rounded=0;orthogonalLoop=1;jettySize=auto;html=1;exitX=0.5;exitY=1;exitDx=0;exitDy=0;entryX=0.5;entryY=0;entryDx=0;entryDy=0;" edge="1" parent="XPeFe05pSeoeYRAG0yRP-5" source="V7nTUwQH5bitnzumU2AX-6" target="MqdhVK-HY7xANDIFwz0L-0">
          <mxGeometry relative="1" as="geometry" />
        </mxCell>
        <mxCell id="V7nTUwQH5bitnzumU2AX-6" value="加锁，半小时只处理1次" style="whiteSpace=wrap;html=1;rounded=0;fillColor=#ffe6cc;strokeColor=#d79b00;" parent="XPeFe05pSeoeYRAG0yRP-5" vertex="1">
          <mxGeometry x="70" y="440" width="120" height="60" as="geometry" />
        </mxCell>
        <mxCell id="VCBYZFLRC-QHVLFJjjLS-2" value="查询缓存中的广告计划列表" style="rounded=0;whiteSpace=wrap;html=1;fillColor=#ffe6cc;strokeColor=#d79b00;" vertex="1" parent="XPeFe05pSeoeYRAG0yRP-5">
          <mxGeometry x="70" y="820" width="120" height="60" as="geometry" />
        </mxCell>
        <mxCell id="VCBYZFLRC-QHVLFJjjLS-4" value="查询广告计划计数值" style="rounded=0;whiteSpace=wrap;html=1;fillColor=#ffe6cc;strokeColor=#d79b00;" vertex="1" parent="XPeFe05pSeoeYRAG0yRP-5">
          <mxGeometry x="70" y="920" width="120" height="60" as="geometry" />
        </mxCell>
        <mxCell id="VCBYZFLRC-QHVLFJjjLS-3" style="edgeStyle=orthogonalEdgeStyle;rounded=0;orthogonalLoop=1;jettySize=auto;html=1;" edge="1" parent="XPeFe05pSeoeYRAG0yRP-5" source="VCBYZFLRC-QHVLFJjjLS-2" target="VCBYZFLRC-QHVLFJjjLS-4">
          <mxGeometry relative="1" as="geometry">
            <mxPoint x="130" y="920" as="targetPoint" />
          </mxGeometry>
        </mxCell>
        <mxCell id="aRkYkFqwWbnHcXKLK4h_-4" style="edgeStyle=orthogonalEdgeStyle;rounded=0;orthogonalLoop=1;jettySize=auto;html=1;exitX=0.5;exitY=1;exitDx=0;exitDy=0;" edge="1" parent="XPeFe05pSeoeYRAG0yRP-5" source="aRkYkFqwWbnHcXKLK4h_-2" target="aRkYkFqwWbnHcXKLK4h_-3">
          <mxGeometry relative="1" as="geometry" />
        </mxCell>
        <mxCell id="aRkYkFqwWbnHcXKLK4h_-2" value="查询缓存中的广告计划列表" style="rounded=0;whiteSpace=wrap;html=1;fillColor=#ffe6cc;strokeColor=#d79b00;" vertex="1" parent="XPeFe05pSeoeYRAG0yRP-5">
          <mxGeometry x="72.5" y="1120" width="120" height="60" as="geometry" />
        </mxCell>
        <mxCell id="aRkYkFqwWbnHcXKLK4h_-3" value="查询广告计划表" style="rounded=0;whiteSpace=wrap;html=1;fillColor=#d5e8d4;strokeColor=#82b366;" vertex="1" parent="XPeFe05pSeoeYRAG0yRP-5">
          <mxGeometry x="72.5" y="1220" width="120" height="60" as="geometry" />
        </mxCell>
        <mxCell id="aRkYkFqwWbnHcXKLK4h_-9" value="7天前过期" style="rhombus;whiteSpace=wrap;html=1;" vertex="1" parent="XPeFe05pSeoeYRAG0yRP-5">
          <mxGeometry x="92.5" y="1310" width="80" height="60" as="geometry" />
        </mxCell>
        <mxCell id="aRkYkFqwWbnHcXKLK4h_-8" style="edgeStyle=orthogonalEdgeStyle;rounded=0;orthogonalLoop=1;jettySize=auto;html=1;exitX=0.5;exitY=1;exitDx=0;exitDy=0;" edge="1" parent="XPeFe05pSeoeYRAG0yRP-5" source="aRkYkFqwWbnHcXKLK4h_-3" target="aRkYkFqwWbnHcXKLK4h_-9">
          <mxGeometry relative="1" as="geometry">
            <mxPoint x="133" y="1320" as="targetPoint" />
          </mxGeometry>
        </mxCell>
        <mxCell id="aRkYkFqwWbnHcXKLK4h_-11" value="从广告计划列表缓存中移除" style="rounded=0;whiteSpace=wrap;html=1;fillColor=#ffe6cc;strokeColor=#d79b00;" vertex="1" parent="XPeFe05pSeoeYRAG0yRP-5">
          <mxGeometry x="72.5" y="1414" width="120" height="60" as="geometry" />
        </mxCell>
        <mxCell id="aRkYkFqwWbnHcXKLK4h_-10" value="Y" style="edgeStyle=orthogonalEdgeStyle;rounded=0;orthogonalLoop=1;jettySize=auto;html=1;entryX=0.5;entryY=0;entryDx=0;entryDy=0;" edge="1" parent="XPeFe05pSeoeYRAG0yRP-5" source="aRkYkFqwWbnHcXKLK4h_-9" target="aRkYkFqwWbnHcXKLK4h_-11">
          <mxGeometry relative="1" as="geometry">
            <mxPoint x="133" y="1420" as="targetPoint" />
          </mxGeometry>
        </mxCell>
        <mxCell id="aRkYkFqwWbnHcXKLK4h_-13" value="删除广告计划计数缓存" style="rounded=0;whiteSpace=wrap;html=1;fillColor=#ffe6cc;strokeColor=#d79b00;" vertex="1" parent="XPeFe05pSeoeYRAG0yRP-5">
          <mxGeometry x="72.5" y="1510" width="120" height="60" as="geometry" />
        </mxCell>
        <mxCell id="MqdhVK-HY7xANDIFwz0L-0" value="发送消耗预算完毕MQ" style="rounded=0;whiteSpace=wrap;html=1;" vertex="1" parent="XPeFe05pSeoeYRAG0yRP-5">
          <mxGeometry x="70" y="540" width="120" height="60" as="geometry" />
        </mxCell>
        <mxCell id="MqdhVK-HY7xANDIFwz0L-2" value="写入广告计划无效缓存" style="rounded=0;whiteSpace=wrap;html=1;fillColor=#ffe6cc;strokeColor=#d79b00;" vertex="1" parent="XPeFe05pSeoeYRAG0yRP-5">
          <mxGeometry x="70" y="650" width="120" height="60" as="geometry" />
        </mxCell>
        <mxCell id="MqdhVK-HY7xANDIFwz0L-3" value="" style="edgeStyle=orthogonalEdgeStyle;rounded=0;orthogonalLoop=1;jettySize=auto;html=1;" edge="1" parent="XPeFe05pSeoeYRAG0yRP-5" source="MqdhVK-HY7xANDIFwz0L-0" target="MqdhVK-HY7xANDIFwz0L-2">
          <mxGeometry relative="1" as="geometry" />
        </mxCell>
        <mxCell id="578_TW30kGgNHSs3byjk-0" value="定时清除广告计划无效缓存&lt;br&gt;每天凌晨跑一次" style="rounded=1;whiteSpace=wrap;html=1;" vertex="1" parent="XPeFe05pSeoeYRAG0yRP-5">
          <mxGeometry x="-140" y="1640" width="120" height="60" as="geometry" />
        </mxCell>
        <mxCell id="578_TW30kGgNHSs3byjk-2" style="edgeStyle=orthogonalEdgeStyle;rounded=0;orthogonalLoop=1;jettySize=auto;html=1;entryX=0;entryY=0.5;entryDx=0;entryDy=0;" edge="1" parent="XPeFe05pSeoeYRAG0yRP-5" source="578_TW30kGgNHSs3byjk-0" target="578_TW30kGgNHSs3byjk-5">
          <mxGeometry relative="1" as="geometry">
            <mxPoint x="-60" y="1200" as="targetPoint" />
          </mxGeometry>
        </mxCell>
        <mxCell id="578_TW30kGgNHSs3byjk-5" value="查询广告计划无效缓存" style="rounded=0;whiteSpace=wrap;html=1;fillColor=#ffe6cc;strokeColor=#d79b00;" vertex="1" parent="XPeFe05pSeoeYRAG0yRP-5">
          <mxGeometry x="72.5" y="1640" width="120" height="60" as="geometry" />
        </mxCell>
        <mxCell id="578_TW30kGgNHSs3byjk-7" value="1天前过期" style="rhombus;whiteSpace=wrap;html=1;" vertex="1" parent="XPeFe05pSeoeYRAG0yRP-5">
          <mxGeometry x="90" y="1730" width="80" height="60" as="geometry" />
        </mxCell>
        <mxCell id="578_TW30kGgNHSs3byjk-8" style="edgeStyle=orthogonalEdgeStyle;rounded=0;orthogonalLoop=1;jettySize=auto;html=1;exitX=0.5;exitY=1;exitDx=0;exitDy=0;" edge="1" parent="XPeFe05pSeoeYRAG0yRP-5" target="578_TW30kGgNHSs3byjk-7">
          <mxGeometry relative="1" as="geometry">
            <mxPoint x="-159.5" y="1250" as="targetPoint" />
            <mxPoint x="130" y="1700" as="sourcePoint" />
          </mxGeometry>
        </mxCell>
        <mxCell id="578_TW30kGgNHSs3byjk-9" value="从广告计划无效缓存中移除" style="rounded=0;whiteSpace=wrap;html=1;fillColor=#ffe6cc;strokeColor=#d79b00;" vertex="1" parent="XPeFe05pSeoeYRAG0yRP-5">
          <mxGeometry x="70" y="1834" width="120" height="60" as="geometry" />
        </mxCell>
        <mxCell id="578_TW30kGgNHSs3byjk-10" value="Y" style="edgeStyle=orthogonalEdgeStyle;rounded=0;orthogonalLoop=1;jettySize=auto;html=1;entryX=0.5;entryY=0;entryDx=0;entryDy=0;" edge="1" parent="XPeFe05pSeoeYRAG0yRP-5" source="578_TW30kGgNHSs3byjk-7" target="578_TW30kGgNHSs3byjk-9">
          <mxGeometry relative="1" as="geometry">
            <mxPoint x="-159.5" y="1350" as="targetPoint" />
          </mxGeometry>
        </mxCell>
        <mxCell id="V7nTUwQH5bitnzumU2AX-5" value="Y" style="edgeStyle=orthogonalEdgeStyle;rounded=0;orthogonalLoop=1;jettySize=auto;html=1;exitX=0.5;exitY=1;exitDx=0;exitDy=0;" parent="uOho3hO3nzCLooX27CC9-1" source="V7nTUwQH5bitnzumU2AX-4" edge="1">
          <mxGeometry relative="1" as="geometry">
            <mxPoint x="420" y="930" as="targetPoint" />
            <Array as="points">
              <mxPoint x="420" y="930" />
              <mxPoint x="420" y="930" />
            </Array>
          </mxGeometry>
        </mxCell>
        <mxCell id="VCBYZFLRC-QHVLFJjjLS-5" style="edgeStyle=orthogonalEdgeStyle;rounded=0;orthogonalLoop=1;jettySize=auto;html=1;" edge="1" parent="uOho3hO3nzCLooX27CC9-1" source="VCBYZFLRC-QHVLFJjjLS-4" target="VCBYZFLRC-QHVLFJjjLS-6">
          <mxGeometry relative="1" as="geometry">
            <mxPoint x="420" y="1520" as="targetPoint" />
          </mxGeometry>
        </mxCell>
        <mxCell id="VCBYZFLRC-QHVLFJjjLS-7" style="edgeStyle=orthogonalEdgeStyle;rounded=0;orthogonalLoop=1;jettySize=auto;html=1;exitX=0;exitY=0.5;exitDx=0;exitDy=0;entryX=1;entryY=0.5;entryDx=0;entryDy=0;" edge="1" parent="uOho3hO3nzCLooX27CC9-1" source="VCBYZFLRC-QHVLFJjjLS-6" target="VCBYZFLRC-QHVLFJjjLS-8">
          <mxGeometry relative="1" as="geometry">
            <mxPoint x="250" y="1520" as="targetPoint" />
          </mxGeometry>
        </mxCell>
        <mxCell id="VCBYZFLRC-QHVLFJjjLS-6" value="更新广告计划表" style="rounded=0;whiteSpace=wrap;html=1;fillColor=#d5e8d4;strokeColor=#82b366;" vertex="1" parent="uOho3hO3nzCLooX27CC9-1">
          <mxGeometry x="360" y="1490" width="120" height="60" as="geometry" />
        </mxCell>
        <mxCell id="aRkYkFqwWbnHcXKLK4h_-12" style="edgeStyle=orthogonalEdgeStyle;rounded=0;orthogonalLoop=1;jettySize=auto;html=1;exitX=0.5;exitY=1;exitDx=0;exitDy=0;" edge="1" parent="uOho3hO3nzCLooX27CC9-1" source="aRkYkFqwWbnHcXKLK4h_-11">
          <mxGeometry relative="1" as="geometry">
            <mxPoint x="423" y="2000" as="targetPoint" />
          </mxGeometry>
        </mxCell>
      </root>
    </mxGraphModel>
  </diagram>
  <diagram id="UIyQHxyXcqEbRg1r0v4E" name="充值">
    <mxGraphModel dx="1422" dy="762" grid="1" gridSize="10" guides="1" tooltips="1" connect="1" arrows="1" fold="1" page="1" pageScale="1" pageWidth="827" pageHeight="1169" math="0" shadow="0">
      <root>
        <mxCell id="NR8Hzzg2eVxnOmdGWqBG-0" />
        <mxCell id="NR8Hzzg2eVxnOmdGWqBG-1" parent="NR8Hzzg2eVxnOmdGWqBG-0" />
        <mxCell id="1e-TMuQIiiJc0R510iO1-0" value="充值" style="swimlane;html=1;childLayout=stackLayout;resizeParent=1;resizeParentMax=0;startSize=20;" parent="NR8Hzzg2eVxnOmdGWqBG-1" vertex="1">
          <mxGeometry x="130" y="470" width="1270" height="1250" as="geometry" />
        </mxCell>
        <mxCell id="1e-TMuQIiiJc0R510iO1-1" style="edgeStyle=orthogonalEdgeStyle;rounded=0;orthogonalLoop=1;jettySize=auto;html=1;exitX=1;exitY=0.5;exitDx=0;exitDy=0;entryX=0;entryY=0.5;entryDx=0;entryDy=0;" parent="1e-TMuQIiiJc0R510iO1-0" source="1e-TMuQIiiJc0R510iO1-3" target="1e-TMuQIiiJc0R510iO1-6" edge="1">
          <mxGeometry relative="1" as="geometry">
            <mxPoint x="200" y="85" as="sourcePoint" />
          </mxGeometry>
        </mxCell>
        <mxCell id="1e-TMuQIiiJc0R510iO1-2" value="商户;管理端" style="swimlane;html=1;startSize=20;" parent="1e-TMuQIiiJc0R510iO1-0" vertex="1">
          <mxGeometry y="20" width="160" height="1230" as="geometry" />
        </mxCell>
        <mxCell id="1e-TMuQIiiJc0R510iO1-3" value="商户提交充值单" style="rounded=1;whiteSpace=wrap;html=1;" parent="1e-TMuQIiiJc0R510iO1-2" vertex="1">
          <mxGeometry x="20" y="35" width="120" height="60" as="geometry" />
        </mxCell>
        <mxCell id="CszbF49pskfbrUui2ujq-15" value="结束" style="rounded=1;whiteSpace=wrap;html=1;" parent="1e-TMuQIiiJc0R510iO1-2" vertex="1">
          <mxGeometry x="20" y="480" width="120" height="60" as="geometry" />
        </mxCell>
        <mxCell id="LmGyefSFt28kOw_XgEs9-24" value="根据充值流水号查询" style="edgeStyle=orthogonalEdgeStyle;rounded=0;orthogonalLoop=1;jettySize=auto;html=1;exitX=1;exitY=0.5;exitDx=0;exitDy=0;entryX=0;entryY=0.5;entryDx=0;entryDy=0;" parent="1e-TMuQIiiJc0R510iO1-0" source="LmGyefSFt28kOw_XgEs9-23" target="1e-TMuQIiiJc0R510iO1-19" edge="1">
          <mxGeometry relative="1" as="geometry" />
        </mxCell>
        <mxCell id="LmGyefSFt28kOw_XgEs9-27" value="N" style="edgeStyle=orthogonalEdgeStyle;rounded=0;orthogonalLoop=1;jettySize=auto;html=1;entryX=0.5;entryY=0;entryDx=0;entryDy=0;" parent="1e-TMuQIiiJc0R510iO1-0" source="LmGyefSFt28kOw_XgEs9-26" target="CszbF49pskfbrUui2ujq-15" edge="1">
          <mxGeometry relative="1" as="geometry">
            <mxPoint x="80" y="310" as="targetPoint" />
          </mxGeometry>
        </mxCell>
        <mxCell id="LmGyefSFt28kOw_XgEs9-32" style="edgeStyle=orthogonalEdgeStyle;rounded=0;orthogonalLoop=1;jettySize=auto;html=1;exitX=1;exitY=0.5;exitDx=0;exitDy=0;" parent="1e-TMuQIiiJc0R510iO1-0" source="C4YiCsCQlkrB4TfUU9sr-0" target="LmGyefSFt28kOw_XgEs9-33" edge="1">
          <mxGeometry relative="1" as="geometry">
            <mxPoint x="980" y="660" as="targetPoint" />
          </mxGeometry>
        </mxCell>
        <mxCell id="C4YiCsCQlkrB4TfUU9sr-4" style="edgeStyle=orthogonalEdgeStyle;rounded=0;orthogonalLoop=1;jettySize=auto;html=1;entryX=0.5;entryY=1;entryDx=0;entryDy=0;" parent="1e-TMuQIiiJc0R510iO1-0" source="C4YiCsCQlkrB4TfUU9sr-3" target="CszbF49pskfbrUui2ujq-15" edge="1">
          <mxGeometry relative="1" as="geometry">
            <mxPoint x="80" y="610" as="targetPoint" />
          </mxGeometry>
        </mxCell>
        <mxCell id="1e-TMuQIiiJc0R510iO1-5" value="计费模块" style="swimlane;html=1;startSize=20;" parent="1e-TMuQIiiJc0R510iO1-0" vertex="1">
          <mxGeometry x="160" y="20" width="370" height="1230" as="geometry" />
        </mxCell>
        <mxCell id="1e-TMuQIiiJc0R510iO1-6" value="&lt;span style=&quot;font-size: 13.3333px&quot;&gt;校验充值流水号唯一性&lt;/span&gt;" style="rounded=0;whiteSpace=wrap;html=1;" parent="1e-TMuQIiiJc0R510iO1-5" vertex="1">
          <mxGeometry x="100" y="35" width="120" height="60" as="geometry" />
        </mxCell>
        <mxCell id="LmGyefSFt28kOw_XgEs9-1" value="&lt;span style=&quot;font-size: 13.3333px&quot;&gt;生成充值单号&lt;/span&gt;" style="rounded=0;whiteSpace=wrap;html=1;" parent="1e-TMuQIiiJc0R510iO1-5" vertex="1">
          <mxGeometry x="100" y="140" width="120" height="60" as="geometry" />
        </mxCell>
        <mxCell id="LmGyefSFt28kOw_XgEs9-0" style="edgeStyle=orthogonalEdgeStyle;rounded=0;orthogonalLoop=1;jettySize=auto;html=1;exitX=0.5;exitY=1;exitDx=0;exitDy=0;" parent="1e-TMuQIiiJc0R510iO1-5" source="1e-TMuQIiiJc0R510iO1-6" target="LmGyefSFt28kOw_XgEs9-1" edge="1">
          <mxGeometry relative="1" as="geometry">
            <mxPoint x="160" y="120" as="targetPoint" />
          </mxGeometry>
        </mxCell>
        <mxCell id="LmGyefSFt28kOw_XgEs9-23" value="查询付款详情" style="rounded=0;whiteSpace=wrap;html=1;" parent="1e-TMuQIiiJc0R510iO1-5" vertex="1">
          <mxGeometry x="100" y="330" width="120" height="60" as="geometry" />
        </mxCell>
        <mxCell id="LmGyefSFt28kOw_XgEs9-20" value="N" style="edgeStyle=orthogonalEdgeStyle;rounded=0;orthogonalLoop=1;jettySize=auto;html=1;exitX=0.5;exitY=1;exitDx=0;exitDy=0;" parent="1e-TMuQIiiJc0R510iO1-5" source="LmGyefSFt28kOw_XgEs9-1" edge="1">
          <mxGeometry relative="1" as="geometry">
            <mxPoint x="160" y="240" as="targetPoint" />
            <mxPoint x="160" y="510" as="sourcePoint" />
          </mxGeometry>
        </mxCell>
        <mxCell id="LmGyefSFt28kOw_XgEs9-26" value="是否打款&lt;br&gt;成功" style="rhombus;whiteSpace=wrap;html=1;" parent="1e-TMuQIiiJc0R510iO1-5" vertex="1">
          <mxGeometry x="120" y="420" width="80" height="60" as="geometry" />
        </mxCell>
        <mxCell id="LmGyefSFt28kOw_XgEs9-25" style="edgeStyle=orthogonalEdgeStyle;rounded=0;orthogonalLoop=1;jettySize=auto;html=1;exitX=0.5;exitY=1;exitDx=0;exitDy=0;" parent="1e-TMuQIiiJc0R510iO1-5" source="LmGyefSFt28kOw_XgEs9-23" target="LmGyefSFt28kOw_XgEs9-26" edge="1">
          <mxGeometry relative="1" as="geometry">
            <mxPoint x="160" y="420" as="targetPoint" />
          </mxGeometry>
        </mxCell>
        <mxCell id="LmGyefSFt28kOw_XgEs9-29" value="获取实际充值金额" style="rounded=0;whiteSpace=wrap;html=1;" parent="1e-TMuQIiiJc0R510iO1-5" vertex="1">
          <mxGeometry x="100" y="520" width="120" height="60" as="geometry" />
        </mxCell>
        <mxCell id="C4YiCsCQlkrB4TfUU9sr-1" style="edgeStyle=orthogonalEdgeStyle;rounded=0;orthogonalLoop=1;jettySize=auto;html=1;exitX=0.5;exitY=1;exitDx=0;exitDy=0;entryX=0.5;entryY=0;entryDx=0;entryDy=0;" parent="1e-TMuQIiiJc0R510iO1-5" source="LmGyefSFt28kOw_XgEs9-31" target="C4YiCsCQlkrB4TfUU9sr-0" edge="1">
          <mxGeometry relative="1" as="geometry" />
        </mxCell>
        <mxCell id="LmGyefSFt28kOw_XgEs9-31" value="&lt;span style=&quot;font-size: 13.3333px&quot;&gt;更新充值单&lt;/span&gt;&lt;br style=&quot;font-size: 13.3333px&quot;&gt;&lt;span style=&quot;font-size: 13.3333px&quot;&gt;充值状态=发起充值&lt;br&gt;充值金额=实际充值金额&lt;br&gt;&lt;/span&gt;" style="rounded=0;whiteSpace=wrap;html=1;fillColor=#d5e8d4;strokeColor=#82b366;" parent="1e-TMuQIiiJc0R510iO1-5" vertex="1">
          <mxGeometry x="100" y="610" width="120" height="60" as="geometry" />
        </mxCell>
        <mxCell id="C4YiCsCQlkrB4TfUU9sr-0" value="发起充值" style="rounded=0;whiteSpace=wrap;html=1;" parent="1e-TMuQIiiJc0R510iO1-5" vertex="1">
          <mxGeometry x="100" y="710" width="120" height="60" as="geometry" />
        </mxCell>
        <mxCell id="C4YiCsCQlkrB4TfUU9sr-3" value="&lt;span style=&quot;font-size: 13.3333px&quot;&gt;更新充值单&lt;br&gt;充值状态=充值结果&lt;br&gt;&lt;/span&gt;" style="rounded=0;whiteSpace=wrap;html=1;fillColor=#d5e8d4;strokeColor=#82b366;" parent="1e-TMuQIiiJc0R510iO1-5" vertex="1">
          <mxGeometry x="100" y="820" width="120" height="60" as="geometry" />
        </mxCell>
        <mxCell id="CszbF49pskfbrUui2ujq-17" style="edgeStyle=orthogonalEdgeStyle;rounded=0;orthogonalLoop=1;jettySize=auto;html=1;exitX=0.5;exitY=1;exitDx=0;exitDy=0;entryX=0.5;entryY=0;entryDx=0;entryDy=0;" parent="1e-TMuQIiiJc0R510iO1-5" source="CszbF49pskfbrUui2ujq-16" target="LmGyefSFt28kOw_XgEs9-23" edge="1">
          <mxGeometry relative="1" as="geometry" />
        </mxCell>
        <mxCell id="CszbF49pskfbrUui2ujq-16" value="写入充值单" style="rounded=0;whiteSpace=wrap;html=1;fillColor=#d5e8d4;strokeColor=#82b366;" parent="1e-TMuQIiiJc0R510iO1-5" vertex="1">
          <mxGeometry x="100" y="240" width="120" height="60" as="geometry" />
        </mxCell>
        <mxCell id="1e-TMuQIiiJc0R510iO1-18" value="代付系统" style="swimlane;html=1;startSize=20;" parent="1e-TMuQIiiJc0R510iO1-0" vertex="1">
          <mxGeometry x="530" y="20" width="370" height="1230" as="geometry" />
        </mxCell>
        <mxCell id="1e-TMuQIiiJc0R510iO1-19" value="查询付款详情" style="rounded=0;whiteSpace=wrap;html=1;" parent="1e-TMuQIiiJc0R510iO1-18" vertex="1">
          <mxGeometry x="100" y="330" width="120" height="60" as="geometry" />
        </mxCell>
        <mxCell id="1e-TMuQIiiJc0R510iO1-20" value="红包系统" style="swimlane;html=1;startSize=20;" parent="1e-TMuQIiiJc0R510iO1-0" vertex="1">
          <mxGeometry x="900" y="20" width="370" height="1230" as="geometry" />
        </mxCell>
        <mxCell id="LmGyefSFt28kOw_XgEs9-33" value="充值" style="rounded=0;whiteSpace=wrap;html=1;" parent="1e-TMuQIiiJc0R510iO1-20" vertex="1">
          <mxGeometry x="100" y="710" width="120" height="60" as="geometry" />
        </mxCell>
        <mxCell id="LmGyefSFt28kOw_XgEs9-28" value="Y" style="edgeStyle=orthogonalEdgeStyle;rounded=0;orthogonalLoop=1;jettySize=auto;html=1;exitX=0.5;exitY=1;exitDx=0;exitDy=0;" parent="NR8Hzzg2eVxnOmdGWqBG-1" source="LmGyefSFt28kOw_XgEs9-26" edge="1">
          <mxGeometry relative="1" as="geometry">
            <mxPoint x="450" y="1010" as="targetPoint" />
          </mxGeometry>
        </mxCell>
        <mxCell id="LmGyefSFt28kOw_XgEs9-30" style="edgeStyle=orthogonalEdgeStyle;rounded=0;orthogonalLoop=1;jettySize=auto;html=1;exitX=0.5;exitY=1;exitDx=0;exitDy=0;" parent="NR8Hzzg2eVxnOmdGWqBG-1" source="LmGyefSFt28kOw_XgEs9-29" edge="1">
          <mxGeometry relative="1" as="geometry">
            <mxPoint x="450" y="1100" as="targetPoint" />
          </mxGeometry>
        </mxCell>
        <mxCell id="C4YiCsCQlkrB4TfUU9sr-2" style="edgeStyle=orthogonalEdgeStyle;rounded=0;orthogonalLoop=1;jettySize=auto;html=1;exitX=0.5;exitY=1;exitDx=0;exitDy=0;" parent="NR8Hzzg2eVxnOmdGWqBG-1" source="C4YiCsCQlkrB4TfUU9sr-0" edge="1">
          <mxGeometry relative="1" as="geometry">
            <mxPoint x="450" y="1310" as="targetPoint" />
          </mxGeometry>
        </mxCell>
      </root>
    </mxGraphModel>
  </diagram>
  <diagram id="jZJaOvLuWdz1vP50srQw" name="退款脚本">
    <mxGraphModel dx="1422" dy="762" grid="1" gridSize="10" guides="1" tooltips="1" connect="1" arrows="1" fold="1" page="1" pageScale="1" pageWidth="827" pageHeight="1169" math="0" shadow="0">
      <root>
        <mxCell id="dDS-AAzhdLfFo4iIG_Q--0" />
        <mxCell id="dDS-AAzhdLfFo4iIG_Q--1" parent="dDS-AAzhdLfFo4iIG_Q--0" />
        <mxCell id="UYfYpB-p_VnWdjgHtszm-0" value="退款" style="swimlane;html=1;childLayout=stackLayout;resizeParent=1;resizeParentMax=0;startSize=20;" parent="dDS-AAzhdLfFo4iIG_Q--1" vertex="1">
          <mxGeometry x="130" y="470" width="900" height="1060" as="geometry" />
        </mxCell>
        <mxCell id="UYfYpB-p_VnWdjgHtszm-2" value="dolphin" style="swimlane;html=1;startSize=20;" parent="UYfYpB-p_VnWdjgHtszm-0" vertex="1">
          <mxGeometry y="20" width="160" height="1040" as="geometry" />
        </mxCell>
        <mxCell id="UYfYpB-p_VnWdjgHtszm-3" value="退款脚本" style="rounded=1;whiteSpace=wrap;html=1;" parent="UYfYpB-p_VnWdjgHtszm-2" vertex="1">
          <mxGeometry x="30" y="72.5" width="120" height="60" as="geometry" />
        </mxCell>
        <mxCell id="cfmRMTOxhxIXRibMZpB_-17" value="结束" style="rounded=1;whiteSpace=wrap;html=1;" parent="UYfYpB-p_VnWdjgHtszm-2" vertex="1">
          <mxGeometry x="20" y="900" width="120" height="60" as="geometry" />
        </mxCell>
        <mxCell id="UYfYpB-p_VnWdjgHtszm-1" style="edgeStyle=orthogonalEdgeStyle;rounded=0;orthogonalLoop=1;jettySize=auto;html=1;exitX=1;exitY=0.5;exitDx=0;exitDy=0;entryX=0;entryY=0.5;entryDx=0;entryDy=0;" parent="UYfYpB-p_VnWdjgHtszm-0" source="UYfYpB-p_VnWdjgHtszm-3" target="UYfYpB-p_VnWdjgHtszm-10" edge="1">
          <mxGeometry relative="1" as="geometry">
            <mxPoint x="220" y="122.5" as="sourcePoint" />
          </mxGeometry>
        </mxCell>
        <mxCell id="3kcONG7khqXQ_miAPkJ4-2" style="edgeStyle=orthogonalEdgeStyle;rounded=0;orthogonalLoop=1;jettySize=auto;html=1;" parent="UYfYpB-p_VnWdjgHtszm-0" source="3kcONG7khqXQ_miAPkJ4-1" target="3kcONG7khqXQ_miAPkJ4-3" edge="1">
          <mxGeometry relative="1" as="geometry">
            <mxPoint x="720" y="255" as="targetPoint" />
          </mxGeometry>
        </mxCell>
        <mxCell id="UYfYpB-p_VnWdjgHtszm-9" value="计费模块" style="swimlane;html=1;startSize=20;" parent="UYfYpB-p_VnWdjgHtszm-0" vertex="1">
          <mxGeometry x="160" y="20" width="370" height="1040" as="geometry" />
        </mxCell>
        <mxCell id="UYfYpB-p_VnWdjgHtszm-10" value="&lt;span style=&quot;font-size: 13.3333px&quot;&gt;捞取（已下架或者已过期）&lt;br&gt;&amp;amp;&amp;amp; 扣款状态 not in&amp;nbsp;&lt;br&gt;(初始化，已退款成功) 的广告计划&lt;br&gt;&lt;/span&gt;" style="rounded=0;whiteSpace=wrap;html=1;" parent="UYfYpB-p_VnWdjgHtszm-9" vertex="1">
          <mxGeometry x="130" y="50" width="210" height="105" as="geometry" />
        </mxCell>
        <mxCell id="3kcONG7khqXQ_miAPkJ4-1" value="根据扣款单号&lt;br&gt;查询扣款信息" style="rounded=0;whiteSpace=wrap;html=1;" parent="UYfYpB-p_VnWdjgHtszm-9" vertex="1">
          <mxGeometry x="175" y="205" width="120" height="60" as="geometry" />
        </mxCell>
        <mxCell id="3kcONG7khqXQ_miAPkJ4-0" style="edgeStyle=orthogonalEdgeStyle;rounded=0;orthogonalLoop=1;jettySize=auto;html=1;exitX=0.5;exitY=1;exitDx=0;exitDy=0;" parent="UYfYpB-p_VnWdjgHtszm-9" source="UYfYpB-p_VnWdjgHtszm-10" target="3kcONG7khqXQ_miAPkJ4-1" edge="1">
          <mxGeometry relative="1" as="geometry">
            <mxPoint x="235" y="205" as="targetPoint" />
          </mxGeometry>
        </mxCell>
        <mxCell id="3kcONG7khqXQ_miAPkJ4-5" value="已退款成功" style="rhombus;whiteSpace=wrap;html=1;" parent="UYfYpB-p_VnWdjgHtszm-9" vertex="1">
          <mxGeometry x="177.5" y="305" width="115" height="60" as="geometry" />
        </mxCell>
        <mxCell id="3kcONG7khqXQ_miAPkJ4-4" style="edgeStyle=orthogonalEdgeStyle;rounded=0;orthogonalLoop=1;jettySize=auto;html=1;" parent="UYfYpB-p_VnWdjgHtszm-9" source="3kcONG7khqXQ_miAPkJ4-1" target="3kcONG7khqXQ_miAPkJ4-5" edge="1">
          <mxGeometry relative="1" as="geometry">
            <mxPoint x="235" y="315" as="targetPoint" />
          </mxGeometry>
        </mxCell>
        <mxCell id="3kcONG7khqXQ_miAPkJ4-7" value="&lt;span style=&quot;font-size: 13.3333px&quot;&gt;更新广告计划&lt;/span&gt;&lt;br style=&quot;font-size: 13.3333px&quot;&gt;&lt;span style=&quot;font-size: 13.3333px&quot;&gt;扣款状态=退款扣款&lt;/span&gt;" style="rounded=0;whiteSpace=wrap;html=1;fillColor=#d5e8d4;strokeColor=#82b366;" parent="UYfYpB-p_VnWdjgHtszm-9" vertex="1">
          <mxGeometry x="30" y="305" width="120" height="60" as="geometry" />
        </mxCell>
        <mxCell id="3kcONG7khqXQ_miAPkJ4-6" value="Y" style="edgeStyle=orthogonalEdgeStyle;rounded=0;orthogonalLoop=1;jettySize=auto;html=1;exitX=0;exitY=0.5;exitDx=0;exitDy=0;" parent="UYfYpB-p_VnWdjgHtszm-9" source="3kcONG7khqXQ_miAPkJ4-5" target="3kcONG7khqXQ_miAPkJ4-7" edge="1">
          <mxGeometry relative="1" as="geometry">
            <mxPoint x="130" y="335" as="targetPoint" />
          </mxGeometry>
        </mxCell>
        <mxCell id="cfmRMTOxhxIXRibMZpB_-1" value="进入退款流程" style="rounded=0;whiteSpace=wrap;html=1;" parent="UYfYpB-p_VnWdjgHtszm-9" vertex="1">
          <mxGeometry x="175" y="400" width="120" height="60" as="geometry" />
        </mxCell>
        <mxCell id="cfmRMTOxhxIXRibMZpB_-0" value="N" style="edgeStyle=orthogonalEdgeStyle;rounded=0;orthogonalLoop=1;jettySize=auto;html=1;" parent="UYfYpB-p_VnWdjgHtszm-9" source="3kcONG7khqXQ_miAPkJ4-5" target="cfmRMTOxhxIXRibMZpB_-1" edge="1">
          <mxGeometry relative="1" as="geometry">
            <mxPoint x="235" y="420" as="targetPoint" />
          </mxGeometry>
        </mxCell>
        <mxCell id="cfmRMTOxhxIXRibMZpB_-3" value="计算退款金额" style="rounded=0;whiteSpace=wrap;html=1;" parent="UYfYpB-p_VnWdjgHtszm-9" vertex="1">
          <mxGeometry x="175" y="510" width="120" height="60" as="geometry" />
        </mxCell>
        <mxCell id="cfmRMTOxhxIXRibMZpB_-6" value="&lt;span style=&quot;font-size: 13.3333px&quot;&gt;更新广告计划&lt;/span&gt;&lt;br style=&quot;font-size: 13.3333px&quot;&gt;&lt;span style=&quot;font-size: 13.3333px&quot;&gt;扣款状态=发起退款&lt;/span&gt;" style="rounded=0;whiteSpace=wrap;html=1;fillColor=#d5e8d4;strokeColor=#82b366;" parent="UYfYpB-p_VnWdjgHtszm-9" vertex="1">
          <mxGeometry x="175" y="600" width="120" height="60" as="geometry" />
        </mxCell>
        <mxCell id="cfmRMTOxhxIXRibMZpB_-5" style="edgeStyle=orthogonalEdgeStyle;rounded=0;orthogonalLoop=1;jettySize=auto;html=1;exitX=0.5;exitY=1;exitDx=0;exitDy=0;" parent="UYfYpB-p_VnWdjgHtszm-9" source="cfmRMTOxhxIXRibMZpB_-3" target="cfmRMTOxhxIXRibMZpB_-6" edge="1">
          <mxGeometry relative="1" as="geometry">
            <mxPoint x="235" y="610" as="targetPoint" />
          </mxGeometry>
        </mxCell>
        <mxCell id="cfmRMTOxhxIXRibMZpB_-8" value="发起退款" style="rounded=0;whiteSpace=wrap;html=1;" parent="UYfYpB-p_VnWdjgHtszm-9" vertex="1">
          <mxGeometry x="175" y="700" width="120" height="60" as="geometry" />
        </mxCell>
        <mxCell id="cfmRMTOxhxIXRibMZpB_-7" style="edgeStyle=orthogonalEdgeStyle;rounded=0;orthogonalLoop=1;jettySize=auto;html=1;exitX=0.5;exitY=1;exitDx=0;exitDy=0;" parent="UYfYpB-p_VnWdjgHtszm-9" source="cfmRMTOxhxIXRibMZpB_-6" target="cfmRMTOxhxIXRibMZpB_-8" edge="1">
          <mxGeometry relative="1" as="geometry">
            <mxPoint x="235" y="690" as="targetPoint" />
          </mxGeometry>
        </mxCell>
        <mxCell id="cfmRMTOxhxIXRibMZpB_-12" value="&lt;span style=&quot;font-size: 13.3333px&quot;&gt;更新广告计划&lt;/span&gt;&lt;br style=&quot;font-size: 13.3333px&quot;&gt;&lt;span style=&quot;font-size: 13.3333px&quot;&gt;扣款状态=退款结果&lt;/span&gt;" style="rounded=0;whiteSpace=wrap;html=1;fillColor=#d5e8d4;strokeColor=#82b366;" parent="UYfYpB-p_VnWdjgHtszm-9" vertex="1">
          <mxGeometry x="175" y="810" width="120" height="60" as="geometry" />
        </mxCell>
        <mxCell id="cfmRMTOxhxIXRibMZpB_-11" style="edgeStyle=orthogonalEdgeStyle;rounded=0;orthogonalLoop=1;jettySize=auto;html=1;entryX=0.5;entryY=0;entryDx=0;entryDy=0;" parent="UYfYpB-p_VnWdjgHtszm-9" source="cfmRMTOxhxIXRibMZpB_-8" target="cfmRMTOxhxIXRibMZpB_-12" edge="1">
          <mxGeometry relative="1" as="geometry">
            <mxPoint x="235" y="800" as="targetPoint" />
          </mxGeometry>
        </mxCell>
        <mxCell id="cfmRMTOxhxIXRibMZpB_-15" value="异常数据&lt;br&gt;企业微信告警" style="rounded=0;whiteSpace=wrap;html=1;" parent="UYfYpB-p_VnWdjgHtszm-9" vertex="1">
          <mxGeometry x="175" y="900" width="120" height="60" as="geometry" />
        </mxCell>
        <mxCell id="cfmRMTOxhxIXRibMZpB_-14" style="edgeStyle=orthogonalEdgeStyle;rounded=0;orthogonalLoop=1;jettySize=auto;html=1;" parent="UYfYpB-p_VnWdjgHtszm-9" source="cfmRMTOxhxIXRibMZpB_-12" target="cfmRMTOxhxIXRibMZpB_-15" edge="1">
          <mxGeometry relative="1" as="geometry">
            <mxPoint x="235" y="910" as="targetPoint" />
          </mxGeometry>
        </mxCell>
        <mxCell id="UYfYpB-p_VnWdjgHtszm-26" value="红包系统" style="swimlane;html=1;startSize=20;" parent="UYfYpB-p_VnWdjgHtszm-0" vertex="1">
          <mxGeometry x="530" y="20" width="370" height="1040" as="geometry" />
        </mxCell>
        <mxCell id="3kcONG7khqXQ_miAPkJ4-3" value="查询扣款信息" style="rounded=0;whiteSpace=wrap;html=1;" parent="UYfYpB-p_VnWdjgHtszm-26" vertex="1">
          <mxGeometry x="125" y="205" width="120" height="60" as="geometry" />
        </mxCell>
        <mxCell id="cfmRMTOxhxIXRibMZpB_-10" value="发起退款" style="rounded=0;whiteSpace=wrap;html=1;" parent="UYfYpB-p_VnWdjgHtszm-26" vertex="1">
          <mxGeometry x="125" y="700" width="120" height="60" as="geometry" />
        </mxCell>
        <mxCell id="cfmRMTOxhxIXRibMZpB_-9" style="edgeStyle=orthogonalEdgeStyle;rounded=0;orthogonalLoop=1;jettySize=auto;html=1;" parent="UYfYpB-p_VnWdjgHtszm-0" source="cfmRMTOxhxIXRibMZpB_-8" target="cfmRMTOxhxIXRibMZpB_-10" edge="1">
          <mxGeometry relative="1" as="geometry">
            <mxPoint x="690" y="750" as="targetPoint" />
          </mxGeometry>
        </mxCell>
        <mxCell id="cfmRMTOxhxIXRibMZpB_-16" style="edgeStyle=orthogonalEdgeStyle;rounded=0;orthogonalLoop=1;jettySize=auto;html=1;" parent="UYfYpB-p_VnWdjgHtszm-0" source="cfmRMTOxhxIXRibMZpB_-15" target="cfmRMTOxhxIXRibMZpB_-17" edge="1">
          <mxGeometry relative="1" as="geometry">
            <mxPoint x="130" y="950" as="targetPoint" />
          </mxGeometry>
        </mxCell>
        <mxCell id="cfmRMTOxhxIXRibMZpB_-2" style="edgeStyle=orthogonalEdgeStyle;rounded=0;orthogonalLoop=1;jettySize=auto;html=1;" parent="dDS-AAzhdLfFo4iIG_Q--1" source="cfmRMTOxhxIXRibMZpB_-1" edge="1">
          <mxGeometry relative="1" as="geometry">
            <mxPoint x="525" y="1000" as="targetPoint" />
          </mxGeometry>
        </mxCell>
      </root>
    </mxGraphModel>
  </diagram>
  <diagram id="3SkcOyvgBhOFiyYd0YFX" name="内容/商品下架">
    <mxGraphModel dx="1635" dy="902" grid="1" gridSize="10" guides="1" tooltips="1" connect="1" arrows="1" fold="1" page="1" pageScale="1" pageWidth="827" pageHeight="1169" math="0" shadow="0">
      <root>
        <mxCell id="SC2UZAubSrEdxrHUcUOa-0" />
        <mxCell id="SC2UZAubSrEdxrHUcUOa-1" parent="SC2UZAubSrEdxrHUcUOa-0" />
      </root>
    </mxGraphModel>
  </diagram>
  <diagram id="2J0NqC41M0U0FBeVzpVP" name="整体流程">
    <mxGraphModel dx="1363" dy="752" grid="1" gridSize="10" guides="1" tooltips="1" connect="1" arrows="1" fold="1" page="1" pageScale="1" pageWidth="827" pageHeight="1169" math="0" shadow="0">
      <root>
        <mxCell id="POgKUBoXNcsDj7Iglr2z-0" />
        <mxCell id="POgKUBoXNcsDj7Iglr2z-1" parent="POgKUBoXNcsDj7Iglr2z-0" />
        <mxCell id="POgKUBoXNcsDj7Iglr2z-4" style="edgeStyle=orthogonalEdgeStyle;rounded=0;orthogonalLoop=1;jettySize=auto;html=1;" edge="1" parent="POgKUBoXNcsDj7Iglr2z-1" source="POgKUBoXNcsDj7Iglr2z-3" target="POgKUBoXNcsDj7Iglr2z-5">
          <mxGeometry relative="1" as="geometry">
            <mxPoint x="350" y="360" as="targetPoint" />
          </mxGeometry>
        </mxCell>
        <mxCell id="POgKUBoXNcsDj7Iglr2z-3" value="转账打款" style="rounded=0;whiteSpace=wrap;html=1;" vertex="1" parent="POgKUBoXNcsDj7Iglr2z-1">
          <mxGeometry x="180" y="330" width="120" height="60" as="geometry" />
        </mxCell>
        <mxCell id="POgKUBoXNcsDj7Iglr2z-6" style="edgeStyle=orthogonalEdgeStyle;rounded=0;orthogonalLoop=1;jettySize=auto;html=1;" edge="1" parent="POgKUBoXNcsDj7Iglr2z-1" source="POgKUBoXNcsDj7Iglr2z-5" target="POgKUBoXNcsDj7Iglr2z-7">
          <mxGeometry relative="1" as="geometry">
            <mxPoint x="530" y="360" as="targetPoint" />
          </mxGeometry>
        </mxCell>
        <mxCell id="POgKUBoXNcsDj7Iglr2z-5" value="提交充值单" style="rounded=0;whiteSpace=wrap;html=1;" vertex="1" parent="POgKUBoXNcsDj7Iglr2z-1">
          <mxGeometry x="350" y="330" width="120" height="60" as="geometry" />
        </mxCell>
        <mxCell id="POgKUBoXNcsDj7Iglr2z-8" style="edgeStyle=orthogonalEdgeStyle;rounded=0;orthogonalLoop=1;jettySize=auto;html=1;" edge="1" parent="POgKUBoXNcsDj7Iglr2z-1" source="POgKUBoXNcsDj7Iglr2z-7" target="POgKUBoXNcsDj7Iglr2z-9">
          <mxGeometry relative="1" as="geometry">
            <mxPoint x="670" y="360" as="targetPoint" />
          </mxGeometry>
        </mxCell>
        <mxCell id="POgKUBoXNcsDj7Iglr2z-7" value="新建广告投放计划" style="rounded=0;whiteSpace=wrap;html=1;" vertex="1" parent="POgKUBoXNcsDj7Iglr2z-1">
          <mxGeometry x="510" y="330" width="120" height="60" as="geometry" />
        </mxCell>
        <mxCell id="POgKUBoXNcsDj7Iglr2z-10" style="edgeStyle=orthogonalEdgeStyle;rounded=0;orthogonalLoop=1;jettySize=auto;html=1;" edge="1" parent="POgKUBoXNcsDj7Iglr2z-1" source="POgKUBoXNcsDj7Iglr2z-9" target="POgKUBoXNcsDj7Iglr2z-11">
          <mxGeometry relative="1" as="geometry">
            <mxPoint x="830" y="360" as="targetPoint" />
          </mxGeometry>
        </mxCell>
        <mxCell id="POgKUBoXNcsDj7Iglr2z-9" value="扣款" style="rounded=0;whiteSpace=wrap;html=1;" vertex="1" parent="POgKUBoXNcsDj7Iglr2z-1">
          <mxGeometry x="670" y="330" width="120" height="60" as="geometry" />
        </mxCell>
        <mxCell id="POgKUBoXNcsDj7Iglr2z-17" style="edgeStyle=orthogonalEdgeStyle;rounded=0;orthogonalLoop=1;jettySize=auto;html=1;exitX=1;exitY=0.5;exitDx=0;exitDy=0;" edge="1" parent="POgKUBoXNcsDj7Iglr2z-1" source="POgKUBoXNcsDj7Iglr2z-11" target="POgKUBoXNcsDj7Iglr2z-12">
          <mxGeometry relative="1" as="geometry" />
        </mxCell>
        <mxCell id="POgKUBoXNcsDj7Iglr2z-11" value="提交审核" style="rounded=0;whiteSpace=wrap;html=1;" vertex="1" parent="POgKUBoXNcsDj7Iglr2z-1">
          <mxGeometry x="827" y="330" width="120" height="60" as="geometry" />
        </mxCell>
        <mxCell id="POgKUBoXNcsDj7Iglr2z-14" value="" style="edgeStyle=orthogonalEdgeStyle;rounded=0;orthogonalLoop=1;jettySize=auto;html=1;" edge="1" parent="POgKUBoXNcsDj7Iglr2z-1" source="POgKUBoXNcsDj7Iglr2z-12" target="POgKUBoXNcsDj7Iglr2z-13">
          <mxGeometry relative="1" as="geometry" />
        </mxCell>
        <mxCell id="POgKUBoXNcsDj7Iglr2z-12" value="审核通过" style="rounded=0;whiteSpace=wrap;html=1;" vertex="1" parent="POgKUBoXNcsDj7Iglr2z-1">
          <mxGeometry x="180" y="460" width="120" height="60" as="geometry" />
        </mxCell>
        <mxCell id="POgKUBoXNcsDj7Iglr2z-15" style="edgeStyle=orthogonalEdgeStyle;rounded=0;orthogonalLoop=1;jettySize=auto;html=1;" edge="1" parent="POgKUBoXNcsDj7Iglr2z-1" source="POgKUBoXNcsDj7Iglr2z-13" target="POgKUBoXNcsDj7Iglr2z-16">
          <mxGeometry relative="1" as="geometry">
            <mxPoint x="520" y="490" as="targetPoint" />
          </mxGeometry>
        </mxCell>
        <mxCell id="POgKUBoXNcsDj7Iglr2z-13" value="信息流推荐广告" style="rounded=0;whiteSpace=wrap;html=1;" vertex="1" parent="POgKUBoXNcsDj7Iglr2z-1">
          <mxGeometry x="354" y="460" width="120" height="60" as="geometry" />
        </mxCell>
        <mxCell id="POgKUBoXNcsDj7Iglr2z-16" value="曝光统计" style="rounded=0;whiteSpace=wrap;html=1;" vertex="1" parent="POgKUBoXNcsDj7Iglr2z-1">
          <mxGeometry x="510" y="460" width="120" height="60" as="geometry" />
        </mxCell>
      </root>
    </mxGraphModel>
  </diagram>
</mxfile>
